<svg width="500" height="500" version="1.1" xmlns="http://www.w3.org/2000/svg"
    desc="Created with imagetracer.js version 1.2.6">
    <path fill="rgb(129,143,148)" stroke="rgb(129,143,148)" stroke-width="1"
        opacity="0.1843137254901961" d="M 186 52 L 188 52.5 L 186.5 57 L 186 52 Z " />
    <path fill="rgb(129,143,148)" stroke="rgb(129,143,148)" stroke-width="1"
        opacity="0.1843137254901961" d="M 189.5 52 Q 191.8 51.3 191 53.5 L 192.5 56 L 189.5 52 Z " />
    <path fill="rgb(129,143,148)" stroke="rgb(129,143,148)" stroke-width="1"
        opacity="0.1843137254901961"
        d="M 91 56 L 93.5 56 Q 106.6 70.4 122.5 82 L 138.5 93 L 144 95 L 143.5 97 Q 115.1 79.9 92.5 57 L 91 57.5 L 91 56 Z " />
    <path fill="rgb(129,143,148)" stroke="rgb(129,143,148)" stroke-width="1"
        opacity="0.1843137254901961"
        d="M 185.5 58 L 186 60.5 L 185 61.5 L 185 81.5 L 186 84.5 L 185 84.5 L 184 81.5 L 184 61.5 L 185.5 58 Z " />
    <path fill="rgb(129,143,148)" stroke="rgb(129,143,148)" stroke-width="1"
        opacity="0.1843137254901961"
        d="M 194.5 59 L 204 71 Q 206.7 69.9 206 72.5 L 232 99.5 L 210 78.5 L 194.5 59 Z " />
    <path fill="rgb(129,143,148)" stroke="rgb(129,143,148)" stroke-width="1"
        opacity="0.1843137254901961" d="M 91.5 65 L 93 74.5 L 92 74.5 L 91.5 65 Z " />
    <path fill="rgb(129,143,148)" stroke="rgb(129,143,148)" stroke-width="1"
        opacity="0.1843137254901961" d="M 95.5 82 L 100 90.5 L 98 89.5 L 95.5 82 Z " />
    <path fill="rgb(129,143,148)" stroke="rgb(129,143,148)" stroke-width="1"
        opacity="0.1843137254901961" d="M 186.5 86 L 188 90.5 L 186 89.5 L 186.5 86 Z " />
    <path fill="rgb(129,143,148)" stroke="rgb(129,143,148)" stroke-width="1"
        opacity="0.1843137254901961"
        d="M 100.5 92 L 110 105.5 L 108.5 105 L 104 102.5 L 106 102.5 L 100 93.5 L 100.5 92 Z " />
    <path fill="rgb(129,143,148)" stroke="rgb(129,143,148)" stroke-width="1"
        opacity="0.1843137254901961"
        d="M 188.5 92 L 192 98.5 L 188.5 96 L 185 94.5 L 186.5 94 L 188.5 95 L 188 93.5 L 188.5 92 Z " />
    <path fill="rgb(129,143,148)" stroke="rgb(129,143,148)" stroke-width="1"
        opacity="0.1843137254901961" d="M 93.5 95 L 103 101.5 L 101.5 101 Q 95 99.3 93.5 95 Z " />
    <path fill="rgb(129,143,148)" stroke="rgb(129,143,148)" stroke-width="1"
        opacity="0.1843137254901961"
        d="M 147.5 98 L 167 109.5 L 165.5 109 L 151.5 102 L 147.5 98 Z " />
    <path fill="rgb(129,143,148)" stroke="rgb(129,143,148)" stroke-width="1"
        opacity="0.1843137254901961" d="M 91.5 100 L 93 107.5 L 92 107.5 L 91.5 100 Z " />
    <path fill="rgb(129,143,148)" stroke="rgb(129,143,148)" stroke-width="1"
        opacity="0.1843137254901961"
        d="M 233.5 100 L 243 108 Q 241.9 110.7 244.5 110 L 256 119 L 255.5 121 L 244.5 112 L 233.5 100 Z " />
    <path fill="rgb(129,143,148)" stroke="rgb(129,143,148)" stroke-width="1"
        opacity="0.1843137254901961" d="M 182.5 101 L 184 109.5 L 183 109.5 L 182.5 101 Z " />
    <path fill="rgb(129,143,148)" stroke="rgb(129,143,148)" stroke-width="1"
        opacity="0.1843137254901961" d="M 93.5 109 L 94 111.5 L 93 111.5 L 93.5 109 Z " />
    <path fill="rgb(129,143,148)" stroke="rgb(129,143,148)" stroke-width="1"
        opacity="0.1843137254901961"
        d="M 168.5 110 L 176 114.5 L 174.5 114 Q 168.9 113.2 168.5 110 Z " />
    <path fill="rgb(129,143,148)" stroke="rgb(129,143,148)" stroke-width="1"
        opacity="0.1843137254901961" d="M 184.5 112 L 186 116.5 L 185 116.5 L 184.5 112 Z " />
    <path fill="rgb(129,143,148)" stroke="rgb(129,143,148)" stroke-width="1"
        opacity="0.1843137254901961"
        d="M 177.5 115 L 185.5 119 L 187 118.5 Q 187.8 121.1 184.5 120 L 178.5 117 L 177.5 115 Z " />
    <path fill="rgb(129,143,148)" stroke="rgb(129,143,148)" stroke-width="1"
        opacity="0.1843137254901961" d="M 95.5 116 L 102 128.5 L 100 127.5 L 95 117.5 L 95.5 116 Z " />
    <path fill="rgb(129,143,148)" stroke="rgb(129,143,148)" stroke-width="1"
        opacity="0.1843137254901961"
        d="M 257.5 121 L 267.5 130 L 277 133.5 L 273.5 134 Q 262.6 129.4 257.5 121 Z " />
    <path fill="rgb(129,143,148)" stroke="rgb(129,143,148)" stroke-width="1"
        opacity="0.1843137254901961" d="M 102.5 130 L 106 134.5 L 102 131.5 L 102.5 130 Z " />
    <path fill="rgb(129,143,148)" stroke="rgb(129,143,148)" stroke-width="1"
        opacity="0.1843137254901961" d="M 285.5 134 L 326 134.5 L 285.5 135 L 285.5 134 Z " />
    <path fill="rgb(129,143,148)" stroke="rgb(129,143,148)" stroke-width="1"
        opacity="0.1843137254901961"
        d="M 337.5 134 Q 344.5 132.9 348 135.5 L 345.5 136 Q 343.8 133.2 337.5 135 L 337.5 134 Z " />
    <path fill="rgb(129,143,148)" stroke="rgb(129,143,148)" stroke-width="1"
        opacity="0.1843137254901961"
        d="M 106.5 136 L 109.5 140 Q 107.3 140.8 108 138.5 L 106.5 136 Z " />
    <path fill="rgb(129,143,148)" stroke="rgb(129,143,148)" stroke-width="1"
        opacity="0.1843137254901961"
        d="M 356.5 138 L 364 141 L 363.5 143 L 356.5 139 L 356.5 138 Z " />
    <path fill="rgb(129,143,148)" stroke="rgb(129,143,148)" stroke-width="1"
        opacity="0.1843137254901961"
        d="M 110.5 141 L 117.5 149 L 113 147.5 L 115 146.5 L 110.5 141 Z " />
    <path fill="rgb(129,143,148)" stroke="rgb(129,143,148)" stroke-width="1"
        opacity="0.1843137254901961"
        d="M 365.5 143 Q 374.4 148.5 377 159 L 380 159.5 L 377.5 160 Q 372.5 149.5 365.5 143 Z " />
    <path fill="rgb(129,143,148)" stroke="rgb(129,143,148)" stroke-width="1"
        opacity="0.1843137254901961"
        d="M 108.5 145 L 112 146.5 L 110.5 146 Q 107.5 146.5 108.5 145 Z " />
    <path fill="rgb(129,143,148)" stroke="rgb(129,143,148)" stroke-width="1"
        opacity="0.1843137254901961" d="M 108.5 151 L 110 155.5 L 108 154.5 L 108.5 151 Z " />
    <path fill="rgb(129,143,148)" stroke="rgb(129,143,148)" stroke-width="1"
        opacity="0.1843137254901961" d="M 110.5 157 L 112 160.5 L 110 159.5 L 110.5 157 Z " />
    <path fill="rgb(129,143,148)" stroke="rgb(129,143,148)" stroke-width="1"
        opacity="0.1843137254901961"
        d="M 381.5 160 L 385 161.5 L 383.5 161 Q 380.5 161.5 381.5 160 Z " />
    <path fill="rgb(129,143,148)" stroke="rgb(129,143,148)" stroke-width="1"
        opacity="0.1843137254901961"
        d="M 112.5 162 L 117 169.5 L 115 168.5 L 112 163.5 L 112.5 162 Z " />
    <path fill="rgb(129,143,148)" stroke="rgb(129,143,148)" stroke-width="1"
        opacity="0.1843137254901961"
        d="M 386.5 162 L 390 164 L 390 166 L 392 166 L 392 168 Q 394.7 166.9 394 169.5 L 386.5 162 Z " />
    <path fill="rgb(129,143,148)" stroke="rgb(129,143,148)" stroke-width="1"
        opacity="0.1843137254901961" d="M 117.5 171 L 121 175.5 L 118 173.5 L 117.5 171 Z " />
    <path fill="rgb(129,143,148)" stroke="rgb(129,143,148)" stroke-width="1"
        opacity="0.1843137254901961"
        d="M 394.5 171 Q 398.8 173.2 398 180.5 L 397 180.5 L 397 176.5 L 394.5 171 Z " />
    <path fill="rgb(129,143,148)" stroke="rgb(129,143,148)" stroke-width="1"
        opacity="0.1843137254901961" d="M 121.5 177 L 130.5 187 L 121.5 177 Z " />
    <path fill="rgb(129,143,148)" stroke="rgb(129,143,148)" stroke-width="1"
        opacity="0.1843137254901961" d="M 397.5 185 L 398 190.5 L 396 191.5 L 397.5 185 Z " />
    <path fill="rgb(129,143,148)" stroke="rgb(129,143,148)" stroke-width="1"
        opacity="0.1843137254901961" d="M 132.5 187 L 135.5 191 L 132 189 L 132.5 187 Z " />
    <path fill="rgb(129,143,148)" stroke="rgb(129,143,148)" stroke-width="1"
        opacity="0.1843137254901961"
        d="M 368.5 190 L 380 190.5 L 368.5 191 Q 361.8 193.3 358 198.5 L 355.5 202 L 357 199.5 L 362.5 193 L 368.5 190 Z " />
    <path fill="rgb(129,143,148)" stroke="rgb(129,143,148)" stroke-width="1"
        opacity="0.1843137254901961" d="M 137.5 191 L 138.5 193 L 137.5 191 Z " />
    <path fill="rgb(129,143,148)" stroke="rgb(129,143,148)" stroke-width="1"
        opacity="0.1843137254901961" d="M 381.5 191 L 384 192.5 L 382.5 193 L 381.5 191 Z " />
    <path fill="rgb(129,143,148)" stroke="rgb(129,143,148)" stroke-width="1"
        opacity="0.1843137254901961" d="M 140.5 193 L 141.5 195 L 140.5 193 Z " />
    <path fill="rgb(129,143,148)" stroke="rgb(129,143,148)" stroke-width="1"
        opacity="0.1843137254901961" d="M 395.5 193 L 396 194.5 L 394 195.5 L 395.5 193 Z " />
    <path fill="rgb(129,143,148)" stroke="rgb(129,143,148)" stroke-width="1"
        opacity="0.1843137254901961" d="M 384.5 194 L 386 196.5 L 385 196.5 L 384.5 194 Z " />
    <path fill="rgb(129,143,148)" stroke="rgb(129,143,148)" stroke-width="1"
        opacity="0.1843137254901961"
        d="M 143.5 195 L 149 198 L 148.5 200 L 140.5 200 L 140.5 199 L 147 198.5 L 143.5 195 Z " />
    <path fill="rgb(129,143,148)" stroke="rgb(129,143,148)" stroke-width="1"
        opacity="0.1843137254901961"
        d="M 393.5 197 L 394 198.5 L 392 202 L 387.5 203 L 386 199.5 L 387 199.5 Q 385.8 203.3 389.5 202 L 393.5 197 Z " />
    <path fill="rgb(129,143,148)" stroke="rgb(129,143,148)" stroke-width="1"
        opacity="0.1843137254901961"
        d="M 354.5 203 L 355 204.5 L 349.5 214 L 350 212.5 L 354.5 203 Z " />
    <path fill="rgb(129,143,148)" stroke="rgb(129,143,148)" stroke-width="1"
        opacity="0.1843137254901961" d="M 141.5 205 L 142.5 207 Q 139.7 207.7 141.5 205 Z " />
    <path fill="rgb(129,143,148)" stroke="rgb(129,143,148)" stroke-width="1"
        opacity="0.1843137254901961"
        d="M 143.5 208 L 157.5 223 L 161 225.5 L 158.5 224 L 151 219 L 151 217 Q 148.3 218.1 149 215.5 L 143 209.5 L 143.5 208 Z " />
    <path fill="rgb(129,143,148)" stroke="rgb(129,143,148)" stroke-width="1"
        opacity="0.1843137254901961"
        d="M 348.5 215 L 349 217.5 L 347.5 220 L 347 218.5 L 348.5 215 Z " />
    <path fill="rgb(129,143,148)" stroke="rgb(129,143,148)" stroke-width="1"
        opacity="0.1843137254901961"
        d="M 346.5 221 L 347 222.5 L 344.5 228 L 344 226.5 L 346.5 221 Z " />
    <path fill="rgb(129,143,148)" stroke="rgb(129,143,148)" stroke-width="1"
        opacity="0.1843137254901961"
        d="M 162.5 226 L 178 233.5 L 175.5 234 L 163.5 228 L 162.5 226 Z " />
    <path fill="rgb(129,143,148)" stroke="rgb(129,143,148)" stroke-width="1"
        opacity="0.1843137254901961"
        d="M 343.5 229 L 344 231 L 363.5 231 L 368 233 L 369 235.5 L 369 252.5 L 368 252.5 L 368 235.5 L 365.5 233 L 363.5 232 L 343 232 L 343.5 229 Z " />
    <path fill="rgb(129,143,148)" stroke="rgb(129,143,148)" stroke-width="1"
        opacity="0.1843137254901961"
        d="M 179.5 234 L 186 235.5 L 182.5 236 L 179.5 235 L 179.5 234 Z " />
    <path fill="rgb(129,143,148)" stroke="rgb(129,143,148)" stroke-width="1"
        opacity="0.1843137254901961"
        d="M 416.5 235 L 422.5 235 L 426 237 L 427 242.5 L 418 254 L 416 253.5 Q 422.9 248.9 426 240.5 L 423.5 237 L 416.5 236 Q 406.7 247.2 393.5 255 L 393.5 254 L 403 248 Q 401.9 245.3 404.5 246 L 416.5 235 Z " />
    <path fill="rgb(129,143,148)" stroke="rgb(129,143,148)" stroke-width="1"
        opacity="0.1843137254901961"
        d="M 188.5 236 Q 195.3 234.3 197 237.5 L 200.5 242 L 208 246.5 L 206.5 246 Q 199.8 243.8 196 238.5 L 195.5 237 L 188.5 237 L 188.5 236 Z " />
    <path fill="rgb(129,143,148)" stroke="rgb(129,143,148)" stroke-width="1"
        opacity="0.1843137254901961" d="M 209.5 247 L 212 248.5 L 210.5 249 L 209.5 247 Z " />
    <path fill="rgb(129,143,148)" stroke="rgb(129,143,148)" stroke-width="1"
        opacity="0.1843137254901961" d="M 214.5 252 L 217 252.5 L 214.5 253 L 214.5 252 Z " />
    <path fill="rgb(129,143,148)" stroke="rgb(129,143,148)" stroke-width="1"
        opacity="0.1843137254901961"
        d="M 208.5 253 L 212 253.5 L 203.5 255 L 203.5 254 L 208.5 253 Z " />
    <path fill="rgb(129,143,148)" stroke="rgb(129,143,148)" stroke-width="1"
        opacity="0.1843137254901961" d="M 368.5 254 L 389 254.5 L 368.5 255 L 368.5 254 Z " />
    <path fill="rgb(129,143,148)" stroke="rgb(129,143,148)" stroke-width="1"
        opacity="0.1843137254901961"
        d="M 195.5 255 L 201 255.5 L 190.5 257 L 190.5 256 L 195.5 255 Z " />
    <path fill="rgb(129,143,148)" stroke="rgb(129,143,148)" stroke-width="1"
        opacity="0.1843137254901961"
        d="M 415.5 255 L 415 256.5 L 413 260.5 L 400.5 274 L 407 266.5 L 415.5 255 Z " />
    <path fill="rgb(129,143,148)" stroke="rgb(129,143,148)" stroke-width="1"
        opacity="0.1843137254901961" d="M 182.5 257 L 188 257.5 L 182.5 258 L 182.5 257 Z " />
    <path fill="rgb(129,143,148)" stroke="rgb(129,143,148)" stroke-width="1"
        opacity="0.1843137254901961" d="M 173.5 258 L 181 258.5 L 173.5 259 L 173.5 258 Z " />
    <path fill="rgb(129,143,148)" stroke="rgb(129,143,148)" stroke-width="1"
        opacity="0.1843137254901961" d="M 157.5 259 L 170 259.5 L 157.5 260 L 157.5 259 Z " />
    <path fill="rgb(129,143,148)" stroke="rgb(129,143,148)" stroke-width="1"
        opacity="0.1843137254901961" d="M 144.5 260 L 156 260.5 L 144.5 261 L 144.5 260 Z " />
    <path fill="rgb(129,143,148)" stroke="rgb(129,143,148)" stroke-width="1"
        opacity="0.1843137254901961" d="M 96 261 L 100 261.5 L 97 262 L 96.5 264 L 96 261 Z " />
    <path fill="rgb(129,143,148)" stroke="rgb(129,143,148)" stroke-width="1"
        opacity="0.1843137254901961" d="M 112.5 261 L 131 261.5 L 112.5 262 L 112.5 261 Z " />
    <path fill="rgb(129,143,148)" stroke="rgb(129,143,148)" stroke-width="1"
        opacity="0.1843137254901961" d="M 98.5 268 L 102 274.5 L 100 273.5 L 98.5 268 Z " />
    <path fill="rgb(129,143,148)" stroke="rgb(129,143,148)" stroke-width="1"
        opacity="0.1843137254901961"
        d="M 102.5 276 L 110 289.5 L 108 288.5 L 102 277.5 L 102.5 276 Z " />
    <path fill="rgb(129,143,148)" stroke="rgb(129,143,148)" stroke-width="1"
        opacity="0.1843137254901961" d="M 400.5 276 L 401 284.5 L 400 284.5 L 400.5 276 Z " />
    <path fill="rgb(129,143,148)" stroke="rgb(129,143,148)" stroke-width="1"
        opacity="0.1843137254901961"
        d="M 282.5 286 L 285 286.5 L 279.5 288 L 279.5 287 L 282.5 286 Z " />
    <path fill="rgb(129,143,148)" stroke="rgb(129,143,148)" stroke-width="1"
        opacity="0.1843137254901961"
        d="M 275.5 288 L 278 288.5 L 270.5 290 L 270.5 289 L 275.5 288 Z " />
    <path fill="rgb(129,143,148)" stroke="rgb(129,143,148)" stroke-width="1"
        opacity="0.1843137254901961" d="M 110.5 291 L 112 293.5 L 110 292.5 L 110.5 291 Z " />
    <path fill="rgb(129,143,148)" stroke="rgb(129,143,148)" stroke-width="1"
        opacity="0.1843137254901961"
        d="M 266.5 292 L 267 293.5 L 263.5 298 L 264 296.5 L 266.5 292 Z " />
    <path fill="rgb(129,143,148)" stroke="rgb(129,143,148)" stroke-width="1"
        opacity="0.1843137254901961"
        d="M 112.5 295 L 118 307.5 L 136 331.5 L 134 332 Q 127.3 318.4 117 307.5 Q 112.5 302 112.5 295 Z " />
    <path fill="rgb(129,143,148)" stroke="rgb(129,143,148)" stroke-width="1"
        opacity="0.1843137254901961"
        d="M 262.5 299 L 262 300.5 L 258.5 306 L 259 304.5 L 262.5 299 Z " />
    <path fill="rgb(129,143,148)" stroke="rgb(129,143,148)" stroke-width="1"
        opacity="0.1843137254901961"
        d="M 257.5 307 L 258 308.5 L 252.5 316 L 253 314.5 L 257.5 307 Z " />
    <path fill="rgb(129,143,148)" stroke="rgb(129,143,148)" stroke-width="1"
        opacity="0.1843137254901961" d="M 251.5 317 L 250.5 319 L 251.5 317 Z " />
    <path fill="rgb(129,143,148)" stroke="rgb(129,143,148)" stroke-width="1"
        opacity="0.1843137254901961"
        d="M 249.5 320 L 250 321.5 L 239.5 338 L 240 336.5 L 249.5 320 Z " />
    <path fill="rgb(129,143,148)" stroke="rgb(129,143,148)" stroke-width="1"
        opacity="0.1843137254901961"
        d="M 136.5 333 L 153 350.5 L 151 351 L 151 348.5 L 136.5 333 Z " />
    <path fill="rgb(129,143,148)" stroke="rgb(129,143,148)" stroke-width="1"
        opacity="0.1843137254901961"
        d="M 399.5 336 L 400 344.5 L 396.5 351 L 397 349.5 L 399 344.5 L 399.5 336 Z " />
    <path fill="rgb(129,143,148)" stroke="rgb(129,143,148)" stroke-width="1"
        opacity="0.1843137254901961" d="M 238.5 339 L 239 340.5 L 237 341.5 L 238.5 339 Z " />
    <path fill="rgb(129,143,148)" stroke="rgb(129,143,148)" stroke-width="1"
        opacity="0.1843137254901961" d="M 287.5 341 L 288 344.5 L 287 344.5 L 287.5 341 Z " />
    <path fill="rgb(129,143,148)" stroke="rgb(129,143,148)" stroke-width="1"
        opacity="0.1843137254901961"
        d="M 236.5 343 L 236 344.5 L 228.5 358 L 229 356.5 L 236.5 343 Z " />
    <path fill="rgb(129,143,148)" stroke="rgb(129,143,148)" stroke-width="1"
        opacity="0.1843137254901961"
        d="M 289.5 348 Q 292 355.5 298.5 359 L 302 361.5 L 299.5 360 L 292 354.5 L 289 350.5 L 289.5 348 Z " />
    <path fill="rgb(129,143,148)" stroke="rgb(129,143,148)" stroke-width="1"
        opacity="0.1843137254901961" d="M 153.5 352 L 162 359.5 L 160.5 359 L 153.5 352 Z " />
    <path fill="rgb(129,143,148)" stroke="rgb(129,143,148)" stroke-width="1"
        opacity="0.1843137254901961"
        d="M 395.5 352 L 395 353.5 L 390.5 359 L 385.5 362 L 386.5 360 L 394 354.5 L 395.5 352 Z " />
    <path fill="rgb(129,143,148)" stroke="rgb(129,143,148)" stroke-width="1"
        opacity="0.1843137254901961"
        d="M 227.5 359 L 227 360.5 L 224.5 365 L 225 363.5 L 227.5 359 Z " />
    <path fill="rgb(129,143,148)" stroke="rgb(129,143,148)" stroke-width="1"
        opacity="0.1843137254901961" d="M 163.5 360 L 164.5 362 L 163.5 360 Z " />
    <path fill="rgb(129,143,148)" stroke="rgb(129,143,148)" stroke-width="1"
        opacity="0.1843137254901961" d="M 166.5 362 L 167.5 364 L 166.5 362 Z " />
    <path fill="rgb(129,143,148)" stroke="rgb(129,143,148)" stroke-width="1"
        opacity="0.1843137254901961" d="M 303.5 362 L 306 363.5 L 304.5 364 L 303.5 362 Z " />
    <path fill="rgb(129,143,148)" stroke="rgb(129,143,148)" stroke-width="1"
        opacity="0.1843137254901961" d="M 169.5 364 L 170.5 366 L 169.5 364 Z " />
    <path fill="rgb(129,143,148)" stroke="rgb(129,143,148)" stroke-width="1"
        opacity="0.1843137254901961" d="M 376.5 364 L 379 364.5 L 376.5 365 L 376.5 364 Z " />
    <path fill="rgb(129,143,148)" stroke="rgb(129,143,148)" stroke-width="1"
        opacity="0.1843137254901961" d="M 311.5 365 L 375 365.5 L 311.5 366 L 311.5 365 Z " />
    <path fill="rgb(129,143,148)" stroke="rgb(129,143,148)" stroke-width="1"
        opacity="0.1843137254901961"
        d="M 172.5 366 Q 180.3 374.2 192 378.5 L 190.5 379 Q 178.6 374.3 172.5 366 Z " />
    <path fill="rgb(129,143,148)" stroke="rgb(129,143,148)" stroke-width="1"
        opacity="0.1843137254901961" d="M 223.5 366 L 224 367.5 L 222 368.5 L 223.5 366 Z " />
    <path fill="rgb(129,143,148)" stroke="rgb(129,143,148)" stroke-width="1"
        opacity="0.1843137254901961"
        d="M 221.5 370 L 222 371.5 L 210.5 393 Q 208.3 393.8 209 391.5 L 207 387.5 L 208 387.5 L 210.5 392 L 221.5 370 Z " />
    <path fill="rgb(129,143,148)" stroke="rgb(129,143,148)" stroke-width="1"
        opacity="0.1843137254901961"
        d="M 198.5 381 Q 204.4 381.6 207 385.5 L 204.5 384 L 198.5 382 L 198.5 381 Z " />
    <path fill="rgb(16,49,60)" stroke="rgb(16,49,60)" stroke-width="1" opacity="0.9882352941176471"
        d="M 188.5 52 Q 195.3 57.4 198 66 L 202 68.5 L 223.5 93 L 264.5 129 L 273.5 134 L 278.5 135 L 343.5 135 Q 345 137.5 350.5 136 Q 364.2 140.3 372 150.5 L 377.5 160 L 385.5 162 L 394 170.5 Q 398 175.5 398 184.5 L 396 192.5 L 389.5 202 Q 385.8 203.3 387 199.5 L 385 193.5 L 382.5 191 Q 377.4 188.6 368.5 190 Q 361.1 192.6 357 198.5 L 349 212.5 L 342 231.5 L 363.5 232 L 368 235.5 L 368 255 L 388.5 255 L 392.5 256 Q 405.7 248.2 415.5 237 L 419.5 239 L 425 242 L 412 261 Q 409.3 259.9 410 262.5 L 400 273.5 L 400 335.5 L 399 336.5 L 399 344.5 Q 396.8 352.3 391.5 357 Q 385.5 363 375.5 365 L 310.5 365 L 302.5 362 L 291 351.5 L 287 340.5 L 287 285 Q 278.5 288.9 267 290 L 233 347.5 L 210.5 391 L 204.5 383 L 182.5 374 L 173.5 366 L 158.5 357 L 153 351.5 L 148.5 344 L 136 332.5 L 131 323.5 L 118 307.5 L 113 294.5 L 97 265.5 L 97 262 Q 101.8 259.9 111.5 261 L 112.5 262 L 130.5 262 L 131.5 261 L 156.5 261 L 157.5 260 L 181.5 259 L 182.5 258 L 207.5 255 L 219 251.5 L 208.5 247 L 197 238.5 L 195.5 236 L 186.5 236 L 178.5 234 L 161.5 226 L 145 210.5 L 140 202.5 L 140 200 L 150 199.5 Q 134.9 191.6 124 179.5 Q 124.8 177.3 122.5 178 Q 114.7 168.8 110 156.5 L 108 146 L 117.5 149 L 113 143.5 L 99 124.5 L 94 112.5 L 91 95.5 L 92.5 95 L 110.5 107 L 111 105.5 Q 99.8 95.2 94 79.5 L 92 70.5 L 92 57 L 93.5 57 L 119.5 81 L 136.5 93 L 172.5 114 L 187 120 L 184 111.5 L 182 95.5 L 184.5 94 L 191.5 99 L 192 96.5 Q 187.3 92.7 186 85.5 L 185 80.5 L 185 61.5 L 188.5 52 Z M 195 72 L 193 75 Q 195 92 205 102 L 226 121 L 260 145 L 275 158 Q 276 162 278 159 L 278 157 Q 267 147 260 134 L 222 101 L 219 98 L 215 94 L 195 72 Z M 104 78 L 107 86 L 121 106 L 140 121 L 163 135 L 207 157 L 218 161 L 258 185 L 261 190 L 267 196 L 263 195 L 234 178 L 223 174 L 162 143 L 139 130 L 123 119 L 104 110 L 104 114 L 115 133 L 137 152 L 144 156 L 183 172 L 204 178 L 229 188 L 260 198 L 269 203 L 270 207 L 259 206 L 256 204 L 249 203 L 236 198 L 229 197 L 166 175 L 154 169 L 131 162 L 128 160 L 125 160 L 123 160 Q 125 168 130 173 Q 145 189 169 197 L 200 203 L 226 206 L 232 208 L 251 209 L 270 213 L 274 212 L 277 212 L 283 217 L 272 219 L 243 218 L 242 217 L 224 216 L 217 214 L 210 214 L 178 208 L 169 208 L 168 207 L 155 208 L 161 214 Q 163 213 162 216 L 183 226 L 197 229 L 229 228 L 258 223 L 271 223 L 272 224 Q 281 225 286 222 L 288 219 Q 290 220 289 224 L 287 225 L 281 232 Q 272 242 259 249 L 227 260 L 194 266 L 176 267 L 175 268 L 110 270 Q 112 280 119 287 L 140 282 L 146 282 L 175 277 L 200 270 L 217 267 L 235 267 L 237 268 Q 238 272 235 275 L 237 276 L 251 280 L 268 280 L 275 278 L 280 278 L 295 272 L 311 261 Q 323 251 331 237 L 343 206 L 353 189 Q 341 191 333 197 L 330 199 Q 329 196 332 197 L 332 196 Q 329 197 330 194 L 333 193 L 336 194 L 336 193 L 351 185 L 363 172 L 363 170 L 354 177 L 341 177 L 339 176 Q 332 171 331 163 L 321 163 L 313 165 L 302 165 L 301 164 L 298 164 Q 289 174 277 180 Q 285 189 289 203 L 289 218 Q 283 201 274 189 L 254 166 Q 251 167 252 164 L 250 164 L 250 163 L 246 158 L 229 152 L 205 138 L 149 109 L 119 90 L 104 78 Z M 192 104 L 194 115 L 199 126 L 210 133 L 249 152 L 259 161 L 260 161 L 260 157 L 259 157 L 238 138 L 229 133 L 192 104 Z M 280 142 L 281 146 Q 289 155 305 157 L 314 157 L 324 155 L 344 155 L 352 157 L 365 163 L 368 162 L 365 155 Q 360 148 352 145 L 338 142 L 324 142 L 323 143 L 283 143 L 280 142 Z M 341 161 L 339 163 L 340 167 L 347 171 Q 351 171 353 168 Q 348 163 341 161 Z M 375 167 L 365 181 L 380 181 L 385 183 L 389 187 Q 390 179 387 176 L 380 168 L 375 167 Z M 271 229 L 267 231 L 248 235 L 214 239 L 225 244 L 236 246 L 248 244 L 273 235 L 272 234 L 274 234 L 274 230 L 271 229 Z M 341 240 L 330 254 L 331 256 L 358 256 L 359 255 L 359 240 L 353 240 L 352 241 L 341 240 Z M 399 258 L 385 267 L 381 264 L 320 265 L 304 278 L 297 281 L 297 342 L 303 351 L 312 355 L 376 355 L 383 352 Q 388 348 390 341 L 390 290 L 389 289 L 349 330 Q 346 329 347 332 L 345 332 L 345 334 L 341 337 L 336 336 L 332 333 L 331 329 L 334 327 L 337 329 L 345 323 Q 375 294 402 261 Q 403 256 399 258 Z M 213 276 L 196 281 L 166 287 L 161 287 L 145 291 L 140 291 L 122 295 L 124 301 L 135 314 L 217 277 L 213 276 Z M 234 276 L 191 299 L 158 312 L 143 319 L 140 322 L 155 338 L 159 337 L 194 311 L 228 282 L 235 278 Q 236 275 234 276 Z M 242 285 L 172 338 L 161 344 L 162 348 Q 169 356 181 359 Q 214 325 243 286 L 242 285 Z M 253 289 L 231 317 L 193 359 L 189 364 L 189 366 L 208 373 L 256 292 Q 257 287 253 289 Z " />
    <path fill="rgb(16,49,60)" stroke="rgb(16,49,60)" stroke-width="1" opacity="0.9882352941176471"
        d="M 375 170 Q 381 168 379 174 Q 373 176 375 170 Z " />
    <path fill="rgb(16,49,60)" stroke="rgb(16,49,60)" stroke-width="1" opacity="0.9882352941176471"
        d="M 326.5 197 L 324.5 200 L 326.5 197 Z " />
    <path fill="rgb(16,49,60)" stroke="rgb(16,49,60)" stroke-width="1" opacity="0.9882352941176471"
        d="M 318 205 L 321 205.5 L 318.5 207 L 318 205 Z " />
    <path fill="rgb(16,49,60)" stroke="rgb(16,49,60)" stroke-width="1" opacity="0.9882352941176471"
        d="M 326.5 322 L 327.5 325 L 329.5 324 L 331.5 327 L 326 324.5 L 326.5 322 Z " />
    <path fill="rgb(0,0,0)" stroke="rgb(0,0,0)" stroke-width="1" opacity="0"
        d="M 0 0 L 500 0 L 500 500 L 0 500 L 0 0 Z M 186 52 Q 187 58 184 62 L 184 82 L 188 94 L 190 96 Q 187 93 182 94 L 182 107 L 186 119 L 177 115 L 139 93 Q 113 77 94 56 L 91 56 L 91 72 L 93 79 L 104 100 L 106 102 L 104 102 L 94 95 L 91 95 L 91 105 L 95 118 L 100 129 L 104 134 Q 103 136 106 135 L 108 139 L 110 142 L 115 147 L 108 145 L 108 155 Q 111 155 110 160 L 121 178 Q 132 190 147 199 L 141 199 L 139 201 Q 141 209 147 214 Q 146 216 149 215 L 149 217 L 151 217 L 151 219 L 153 219 L 153 221 L 167 230 L 176 234 L 189 237 L 195 237 L 197 241 L 217 252 L 203 255 L 196 255 L 190 257 L 182 257 L 173 259 L 158 259 L 157 260 L 145 260 L 144 261 L 96 261 L 98 270 L 106 286 L 110 291 L 117 308 L 134 331 Q 133 333 136 332 L 143 342 L 151 349 Q 150 352 153 351 L 154 355 L 175 368 L 183 375 L 195 381 L 205 384 L 208 392 L 211 393 L 239 339 L 267 293 L 270 290 L 275 290 L 287 286 L 287 345 Q 289 353 295 357 Q 297 356 296 359 L 305 364 L 312 366 L 375 366 L 383 364 L 391 359 L 396 354 L 400 345 L 400 286 L 401 285 L 401 276 L 400 275 L 418 254 Q 417 251 420 252 L 420 250 L 422 250 L 427 243 L 426 237 L 423 235 L 415 236 L 405 246 Q 402 245 403 248 L 393 255 L 390 254 L 369 254 L 369 236 L 368 233 L 364 231 L 344 231 L 349 218 L 349 215 L 355 205 Q 354 201 357 202 L 358 199 Q 362 193 369 191 L 381 191 L 384 193 L 388 203 L 392 202 L 398 191 L 398 177 L 394 170 Q 395 167 392 168 L 392 166 L 390 166 L 390 164 L 384 160 L 377 159 L 377 157 L 371 147 L 366 143 Q 363 144 364 141 L 345 134 L 278 134 L 268 130 L 258 121 Q 255 122 256 119 L 254 119 L 254 117 L 245 110 Q 242 111 243 108 L 231 98 Q 208 78 191 54 L 191 52 L 186 52 Z " />
    <path fill="rgb(37,124,125)" stroke="rgb(37,124,125)" stroke-width="1"
        opacity="0.9921568627450981" d="M 91.5 58 L 92 64.5 L 91 64.5 L 91.5 58 Z " />
    <path fill="rgb(37,124,125)" stroke="rgb(37,124,125)" stroke-width="1"
        opacity="0.9921568627450981" d="M 107.5 70 L 108.5 72 L 107.5 70 Z " />
    <path fill="rgb(37,124,125)" stroke="rgb(37,124,125)" stroke-width="1"
        opacity="0.9921568627450981"
        d="M 194.5 72 L 203 81.5 L 199.5 79 L 197 78.5 L 197.5 77 Q 195.3 77.8 196 75.5 L 195 75.5 L 194.5 81 L 193 74.5 L 194.5 72 Z " />
    <path fill="rgb(37,124,125)" stroke="rgb(37,124,125)" stroke-width="1"
        opacity="0.9921568627450981" d="M 103.5 78 L 107 80.5 L 104 80.5 L 104.5 79 L 103.5 78 Z " />
    <path fill="rgb(37,124,125)" stroke="rgb(37,124,125)" stroke-width="1"
        opacity="0.9921568627450981" d="M 109.5 82 L 110.5 84 L 109.5 82 Z " />
    <path fill="rgb(37,124,125)" stroke="rgb(37,124,125)" stroke-width="1"
        opacity="0.9921568627450981" d="M 195.5 82 L 197 86.5 L 196 86.5 L 195.5 82 Z " />
    <path fill="rgb(37,124,125)" stroke="rgb(37,124,125)" stroke-width="1"
        opacity="0.9921568627450981"
        d="M 203.5 83 L 213.5 94 L 210.5 92 L 208 88 L 203 84.5 L 203.5 83 Z " />
    <path fill="rgb(37,124,125)" stroke="rgb(37,124,125)" stroke-width="1"
        opacity="0.9921568627450981" d="M 114.5 86 L 115.5 88 L 114.5 86 Z " />
    <path fill="rgb(37,124,125)" stroke="rgb(37,124,125)" stroke-width="1"
        opacity="0.9921568627450981"
        d="M 197.5 88 L 199 92 Q 201.7 90.9 201 93.5 L 204 95 L 204 97 Q 206.7 95.9 206 98.5 L 207.5 101 L 206 100.5 L 208 103.5 L 216.5 112 L 220 113 L 223.5 118 L 226.5 120 L 228 119.5 Q 225.7 120.8 228.5 122 L 232.5 125 L 235 123.5 L 234 126 L 237 126.5 Q 235.3 129.8 233.5 126 L 225.5 121 L 205 101.5 Q 198.6 96 197.5 88 Z " />
    <path fill="rgb(37,124,125)" stroke="rgb(37,124,125)" stroke-width="1"
        opacity="0.9921568627450981" d="M 221.5 90 L 223.5 93 L 221.5 90 Z " />
    <path fill="rgb(37,124,125)" stroke="rgb(37,124,125)" stroke-width="1"
        opacity="0.9921568627450981"
        d="M 215.5 94 L 221.5 101 L 231 109.5 L 222.5 102 L 218 98.5 L 216 95.5 L 215.5 94 Z " />
    <path fill="rgb(37,124,125)" stroke="rgb(37,124,125)" stroke-width="1"
        opacity="0.9921568627450981" d="M 91.5 96 L 92 99.5 L 91 99.5 L 91.5 96 Z " />
    <path fill="rgb(37,124,125)" stroke="rgb(37,124,125)" stroke-width="1"
        opacity="0.9921568627450981" d="M 115.5 97 L 117.5 100 L 115.5 97 Z " />
    <path fill="rgb(37,124,125)" stroke="rgb(37,124,125)" stroke-width="1"
        opacity="0.9921568627450981"
        d="M 191.5 104 L 228.5 133 L 237.5 138 L 258.5 157 L 260 157 L 260 161 L 258.5 161 L 248.5 152 L 209.5 133 L 199 125.5 L 194 114.5 L 191.5 104 Z " />
    <path fill="rgb(37,124,125)" stroke="rgb(37,124,125)" stroke-width="1"
        opacity="0.9921568627450981" d="M 121.5 105 L 123.5 108 L 121.5 105 Z " />
    <path fill="rgb(37,124,125)" stroke="rgb(37,124,125)" stroke-width="1"
        opacity="0.9921568627450981" d="M 125.5 109 L 128.5 113 L 125.5 109 Z " />
    <path fill="rgb(37,124,125)" stroke="rgb(37,124,125)" stroke-width="1"
        opacity="0.9921568627450981" d="M 107.5 111 L 108.5 113 L 107.5 111 Z " />
    <path fill="rgb(37,124,125)" stroke="rgb(37,124,125)" stroke-width="1"
        opacity="0.9921568627450981"
        d="M 233.5 111 L 260 133.5 L 257.5 132 L 236.5 115 L 233.5 111 Z " />
    <path fill="rgb(37,124,125)" stroke="rgb(37,124,125)" stroke-width="1"
        opacity="0.9921568627450981" d="M 112.5 114 L 115 115.5 L 113.5 115 L 112.5 114 Z " />
    <path fill="rgb(37,124,125)" stroke="rgb(37,124,125)" stroke-width="1"
        opacity="0.9921568627450981" d="M 134.5 116 L 135.5 118 L 134.5 116 Z " />
    <path fill="rgb(37,124,125)" stroke="rgb(37,124,125)" stroke-width="1"
        opacity="0.9921568627450981" d="M 225.5 116 L 226.5 118 L 225.5 116 Z " />
    <path fill="rgb(37,124,125)" stroke="rgb(37,124,125)" stroke-width="1"
        opacity="0.9921568627450981" d="M 138.5 119 L 139.5 121 L 138.5 119 Z " />
    <path fill="rgb(37,124,125)" stroke="rgb(37,124,125)" stroke-width="1"
        opacity="0.9921568627450981" d="M 141.5 121 L 142.5 123 L 141.5 121 Z " />
    <path fill="rgb(37,124,125)" stroke="rgb(37,124,125)" stroke-width="1"
        opacity="0.9921568627450981" d="M 127.5 122 L 128.5 124 L 127.5 122 Z " />
    <path fill="rgb(37,124,125)" stroke="rgb(37,124,125)" stroke-width="1"
        opacity="0.9921568627450981" d="M 130.5 124 L 131.5 126 L 130.5 124 Z " />
    <path fill="rgb(37,124,125)" stroke="rgb(37,124,125)" stroke-width="1"
        opacity="0.9921568627450981" d="M 136.5 128 L 137.5 130 L 136.5 128 Z " />
    <path fill="rgb(37,124,125)" stroke="rgb(37,124,125)" stroke-width="1"
        opacity="0.9921568627450981"
        d="M 237.5 128 L 241.5 130 L 243 130.5 Q 240.8 131.8 243.5 133 L 245.5 132 L 245.5 134 L 250 135 L 251.5 139 L 259 144.5 L 256.5 143 L 241.5 133 L 237.5 128 Z " />
    <path fill="rgb(37,124,125)" stroke="rgb(37,124,125)" stroke-width="1"
        opacity="0.9921568627450981" d="M 115.5 132 L 121.5 139 L 115.5 132 Z " />
    <path fill="rgb(37,124,125)" stroke="rgb(37,124,125)" stroke-width="1"
        opacity="0.9921568627450981" d="M 143.5 132 L 144.5 134 L 143.5 132 Z " />
    <path fill="rgb(37,124,125)" stroke="rgb(37,124,125)" stroke-width="1"
        opacity="0.9921568627450981" d="M 161.5 133 L 162.5 135 L 161.5 133 Z " />
    <path fill="rgb(37,124,125)" stroke="rgb(37,124,125)" stroke-width="1"
        opacity="0.9921568627450981" d="M 278.5 134 L 285 134.5 L 278.5 135 L 278.5 134 Z " />
    <path fill="rgb(37,124,125)" stroke="rgb(37,124,125)" stroke-width="1"
        opacity="0.9921568627450981" d="M 328.5 134 L 337 134.5 L 328.5 135 L 328.5 134 Z " />
    <path fill="rgb(37,124,125)" stroke="rgb(37,124,125)" stroke-width="1"
        opacity="0.9921568627450981" d="M 106.5 135 L 107.5 137 L 106.5 135 Z " />
    <path fill="rgb(37,124,125)" stroke="rgb(37,124,125)" stroke-width="1"
        opacity="0.9921568627450981" d="M 260.5 135 L 262.5 138 L 260.5 135 Z " />
    <path fill="rgb(37,124,125)" stroke="rgb(37,124,125)" stroke-width="1"
        opacity="0.9921568627450981" d="M 154.5 138 L 155.5 140 L 154.5 138 Z " />
    <path fill="rgb(37,124,125)" stroke="rgb(37,124,125)" stroke-width="1"
        opacity="0.9921568627450981" d="M 263.5 139 L 266 142.5 L 264 141.5 L 263.5 139 Z " />
    <path fill="rgb(37,124,125)" stroke="rgb(37,124,125)" stroke-width="1"
        opacity="0.9921568627450981" d="M 110.5 140 L 112.5 143 L 110.5 140 Z " />
    <path fill="rgb(37,124,125)" stroke="rgb(37,124,125)" stroke-width="1"
        opacity="0.9921568627450981"
        d="M 124.5 140 L 128.5 144 L 152.5 156 L 195.5 172 L 202.5 176 L 213.5 179 L 240 190.5 L 238.5 191 L 203.5 178 L 182.5 172 L 143.5 156 Q 131.2 150.1 124.5 140 Z " />
    <path fill="rgb(37,124,125)" stroke="rgb(37,124,125)" stroke-width="1"
        opacity="0.9921568627450981" d="M 159.5 141 L 160.5 143 L 159.5 141 Z " />
    <path fill="rgb(37,124,125)" stroke="rgb(37,124,125)" stroke-width="1"
        opacity="0.9921568627450981" d="M 323.5 142 L 338 142.5 L 323.5 143 L 323.5 142 Z " />
    <path fill="rgb(37,124,125)" stroke="rgb(37,124,125)" stroke-width="1"
        opacity="0.9921568627450981"
        d="M 260.5 145 L 268.5 152 L 271.5 152 L 271.5 150 L 278 156.5 L 278 158.5 Q 276.3 161.8 274.5 158 Q 265.1 152.2 260.5 145 Z " />
    <path fill="rgb(37,124,125)" stroke="rgb(37,124,125)" stroke-width="1"
        opacity="0.9921568627450981" d="M 266.5 145 L 270 147.5 L 267.5 146 L 266.5 145 Z " />
    <path fill="rgb(37,124,125)" stroke="rgb(37,124,125)" stroke-width="1"
        opacity="0.9921568627450981" d="M 281.5 145 L 283.5 148 L 281.5 145 Z " />
    <path fill="rgb(37,124,125)" stroke="rgb(37,124,125)" stroke-width="1"
        opacity="0.9921568627450981" d="M 328.5 154 L 339 154.5 L 328.5 155 L 328.5 154 Z " />
    <path fill="rgb(37,124,125)" stroke="rgb(37,124,125)" stroke-width="1"
        opacity="0.9921568627450981" d="M 304.5 156 L 314 156.5 L 304.5 157 L 304.5 156 Z " />
    <path fill="rgb(37,124,125)" stroke="rgb(37,124,125)" stroke-width="1"
        opacity="0.9921568627450981" d="M 245.5 158 L 249.5 163 L 245.5 158 Z " />
    <path fill="rgb(37,124,125)" stroke="rgb(37,124,125)" stroke-width="1"
        opacity="0.9921568627450981"
        d="M 340.5 161 L 340 162.5 L 339.5 164 L 339 162.5 L 340.5 161 Z " />
    <path fill="rgb(37,124,125)" stroke="rgb(37,124,125)" stroke-width="1"
        opacity="0.9921568627450981" d="M 346.5 163 L 347.5 165 L 346.5 163 Z " />
    <path fill="rgb(37,124,125)" stroke="rgb(37,124,125)" stroke-width="1"
        opacity="0.9921568627450981" d="M 340.5 165 L 343 168.5 L 340 166.5 L 340.5 165 Z " />
    <path fill="rgb(37,124,125)" stroke="rgb(37,124,125)" stroke-width="1"
        opacity="0.9921568627450981" d="M 253.5 166 L 260.5 174 L 253.5 166 Z " />
    <path fill="rgb(37,124,125)" stroke="rgb(37,124,125)" stroke-width="1"
        opacity="0.9921568627450981" d="M 351.5 166 L 352.5 168 L 351.5 166 Z " />
    <path fill="rgb(37,124,125)" stroke="rgb(37,124,125)" stroke-width="1"
        opacity="0.9921568627450981" d="M 374.5 167 L 372.5 170 L 374.5 167 Z " />
    <path fill="rgb(37,124,125)" stroke="rgb(37,124,125)" stroke-width="1"
        opacity="0.9921568627450981" d="M 127.5 168 L 128.5 170 L 127.5 168 Z " />
    <path fill="rgb(37,124,125)" stroke="rgb(37,124,125)" stroke-width="1"
        opacity="0.9921568627450981" d="M 290.5 170 L 289.5 172 L 290.5 170 Z " />
    <path fill="rgb(37,124,125)" stroke="rgb(37,124,125)" stroke-width="1"
        opacity="0.9921568627450981" d="M 218.5 171 L 219.5 173 L 218.5 171 Z " />
    <path fill="rgb(37,124,125)" stroke="rgb(37,124,125)" stroke-width="1"
        opacity="0.9921568627450981"
        d="M 130.5 172 Q 138.1 181.9 151.5 186 L 173.5 192 L 182.5 193 L 190.5 196 L 204.5 198 L 208.5 200 L 217.5 201 L 225.5 204 L 248 208.5 L 240.5 209 L 239.5 208 L 231.5 208 L 225.5 206 L 212.5 205 L 205.5 203 L 199.5 203 L 162.5 195 Q 142.1 186.7 130.5 172 Z " />
    <path fill="rgb(37,124,125)" stroke="rgb(37,124,125)" stroke-width="1"
        opacity="0.9921568627450981" d="M 238.5 172 L 239.5 174 L 238.5 172 Z " />
    <path fill="rgb(37,124,125)" stroke="rgb(37,124,125)" stroke-width="1"
        opacity="0.9921568627450981" d="M 286.5 173 L 285.5 175 L 286.5 173 Z " />
    <path fill="rgb(37,124,125)" stroke="rgb(37,124,125)" stroke-width="1"
        opacity="0.9921568627450981" d="M 343.5 177 L 350 177.5 L 343.5 178 L 343.5 177 Z " />
    <path fill="rgb(37,124,125)" stroke="rgb(37,124,125)" stroke-width="1"
        opacity="0.9921568627450981" d="M 248.5 178 L 249.5 180 L 248.5 178 Z " />
    <path fill="rgb(37,124,125)" stroke="rgb(37,124,125)" stroke-width="1"
        opacity="0.9921568627450981"
        d="M 354.5 180 L 350.5 185 L 336 192.5 L 335.5 194 L 332.5 193 L 330 194 Q 328.9 196.7 331.5 196 L 333.5 197 Q 341.5 190.6 353 189 L 343 205.5 L 331 236.5 Q 323 251 310.5 261 L 294.5 272 L 279.5 278 L 274.5 278 L 267.5 280 L 250.5 280 L 236.5 276 L 235 274.5 L 237.5 271 L 239.5 271 L 253.5 270 L 279.5 261 Q 298.1 251.1 311 235.5 Q 322 221.5 328 202.5 L 326.5 203 L 321.5 206 L 318 205 L 317.5 208 L 316 207.5 Q 316.8 210.1 313.5 209 L 310 204 L 332.5 189 L 354.5 180 Z M 330 197 L 330 199 L 332 198 L 330 197 Z " />
    <path fill="rgb(37,124,125)" stroke="rgb(37,124,125)" stroke-width="1"
        opacity="0.9921568627450981" d="M 368.5 180 L 376 180.5 L 368.5 181 L 368.5 180 Z " />
    <path fill="rgb(37,124,125)" stroke="rgb(37,124,125)" stroke-width="1"
        opacity="0.9921568627450981" d="M 252.5 181 L 253.5 183 L 252.5 181 Z " />
    <path fill="rgb(37,124,125)" stroke="rgb(37,124,125)" stroke-width="1"
        opacity="0.9921568627450981" d="M 268.5 182 L 269.5 184 L 268.5 182 Z " />
    <path fill="rgb(37,124,125)" stroke="rgb(37,124,125)" stroke-width="1"
        opacity="0.9921568627450981" d="M 242.5 183 L 243.5 185 L 242.5 183 Z " />
    <path fill="rgb(37,124,125)" stroke="rgb(37,124,125)" stroke-width="1"
        opacity="0.9921568627450981" d="M 255.5 183 L 256.5 185 L 255.5 183 Z " />
    <path fill="rgb(37,124,125)" stroke="rgb(37,124,125)" stroke-width="1"
        opacity="0.9921568627450981" d="M 272.5 187 L 273.5 189 L 272.5 187 Z " />
    <path fill="rgb(37,124,125)" stroke="rgb(37,124,125)" stroke-width="1"
        opacity="0.9921568627450981"
        d="M 253.5 189 L 259 192.5 L 257.5 192 Q 253.5 191.5 253.5 189 Z " />
    <path fill="rgb(37,124,125)" stroke="rgb(37,124,125)" stroke-width="1"
        opacity="0.9921568627450981"
        d="M 261.5 189 L 271 199.5 L 268.5 198 L 263 195.5 L 264.5 195 L 266.5 196 L 261.5 189 Z " />
    <path fill="rgb(37,124,125)" stroke="rgb(37,124,125)" stroke-width="1"
        opacity="0.9921568627450981" d="M 260.5 193 L 261.5 195 L 260.5 193 Z " />
    <path fill="rgb(37,124,125)" stroke="rgb(37,124,125)" stroke-width="1"
        opacity="0.9921568627450981" d="M 278.5 196 L 279.5 198 L 278.5 196 Z " />
    <path fill="rgb(37,124,125)" stroke="rgb(37,124,125)" stroke-width="1"
        opacity="0.9921568627450981" d="M 264.5 200 L 265.5 202 L 264.5 200 Z " />
    <path fill="rgb(37,124,125)" stroke="rgb(37,124,125)" stroke-width="1"
        opacity="0.9921568627450981"
        d="M 269.5 203 L 272 203.5 L 271.5 205 L 273.5 204 L 274 206.5 Q 271.5 208 275 209.5 Q 274.3 211.8 276.5 211 L 282.5 214 L 287 218.5 L 285.5 222 Q 280.5 225 271.5 224 L 270.5 223 L 257.5 223 L 228.5 228 L 196.5 229 L 182.5 226 L 162 216 Q 163.1 213.3 160.5 214 L 155 207.5 L 167.5 207 L 168.5 208 L 177.5 208 L 209.5 214 L 216.5 214 L 223.5 216 L 241.5 217 L 242.5 218 L 271.5 219 L 283 216.5 L 276.5 212 L 273.5 212 L 269.5 213 L 269.5 212 L 273 211.5 L 270 210.5 L 272 209.5 L 265 207.5 L 270 207 L 269.5 203 Z " />
    <path fill="rgb(37,124,125)" stroke="rgb(37,124,125)" stroke-width="1"
        opacity="0.9921568627450981" d="M 260.5 206 L 263 206.5 L 260.5 207 L 260.5 206 Z " />
    <path fill="rgb(37,124,125)" stroke="rgb(37,124,125)" stroke-width="1"
        opacity="0.9921568627450981" d="M 251.5 209 L 254 209.5 L 251.5 210 L 251.5 209 Z " />
    <path fill="rgb(37,124,125)" stroke="rgb(37,124,125)" stroke-width="1"
        opacity="0.9921568627450981" d="M 257.5 210 L 260 210.5 L 257.5 211 L 257.5 210 Z " />
    <path fill="rgb(37,124,125)" stroke="rgb(37,124,125)" stroke-width="1"
        opacity="0.9921568627450981" d="M 264.5 211 L 268 211.5 L 264.5 212 L 264.5 211 Z " />
    <path fill="rgb(37,124,125)" stroke="rgb(37,124,125)" stroke-width="1"
        opacity="0.9921568627450981" d="M 286.5 225 L 281.5 231 L 286.5 225 Z " />
    <path fill="rgb(37,124,125)" stroke="rgb(37,124,125)" stroke-width="1"
        opacity="0.9921568627450981"
        d="M 270.5 229 L 274 230 Q 275 233.8 272.5 235 L 247.5 244 L 235.5 246 L 224.5 244 L 214 238.5 L 247.5 235 L 266.5 231 L 270.5 229 Z " />
    <path fill="rgb(37,124,125)" stroke="rgb(37,124,125)" stroke-width="1"
        opacity="0.9921568627450981"
        d="M 416 236 L 419.5 236 L 426 240 L 425.5 243 L 417.5 237 L 416 237.5 L 416 236 Z " />
    <path fill="rgb(37,124,125)" stroke="rgb(37,124,125)" stroke-width="1"
        opacity="0.9921568627450981" d="M 343.5 240 L 346 240.5 L 343.5 241 L 343.5 240 Z " />
    <path fill="rgb(37,124,125)" stroke="rgb(37,124,125)" stroke-width="1"
        opacity="0.9921568627450981" d="M 352.5 240 L 359 240.5 L 352.5 241 L 352.5 240 Z " />
    <path fill="rgb(37,124,125)" stroke="rgb(37,124,125)" stroke-width="1"
        opacity="0.9921568627450981" d="M 260.5 247 L 259.5 249 L 260.5 247 Z " />
    <path fill="rgb(37,124,125)" stroke="rgb(37,124,125)" stroke-width="1"
        opacity="0.9921568627450981" d="M 332.5 251 L 330.5 254 L 332.5 251 Z " />
    <path fill="rgb(37,124,125)" stroke="rgb(37,124,125)" stroke-width="1"
        opacity="0.9921568627450981" d="M 358.5 251 L 359 254.5 L 358 254.5 L 358.5 251 Z " />
    <path fill="rgb(37,124,125)" stroke="rgb(37,124,125)" stroke-width="1"
        opacity="0.9921568627450981" d="M 332.5 255 L 339 255.5 L 332.5 256 L 332.5 255 Z " />
    <path fill="rgb(37,124,125)" stroke="rgb(37,124,125)" stroke-width="1"
        opacity="0.9921568627450981"
        d="M 398.5 258 Q 403.3 256.3 402 260.5 L 400 261.5 L 401 259 Q 397.7 259.8 398.5 258 Z " />
    <path fill="rgb(37,124,125)" stroke="rgb(37,124,125)" stroke-width="1"
        opacity="0.9921568627450981" d="M 170.5 259 L 173 259.5 L 170.5 260 L 170.5 259 Z " />
    <path fill="rgb(37,124,125)" stroke="rgb(37,124,125)" stroke-width="1"
        opacity="0.9921568627450981"
        d="M 357.5 264 L 380.5 264 L 384.5 267 L 386 266.5 L 381.5 270 L 382 268.5 L 380.5 265 L 357.5 265 L 357.5 264 Z " />
    <path fill="rgb(37,124,125)" stroke="rgb(37,124,125)" stroke-width="1"
        opacity="0.9921568627450981"
        d="M 319.5 265 L 335 265.5 Q 331.8 269.6 326 270 Q 327.3 275.5 323.5 277 L 314 283 Q 315 286 312 285 L 312 287.5 L 311 291 L 309 291.5 L 310 293.5 L 307 297.5 L 307 299.5 L 308 301.5 L 307.5 303 Q 309.8 302.3 309 304.5 L 314 309.5 L 313 310.5 L 313.5 312 L 315.5 311 L 333 326.5 Q 333.8 328.8 331.5 328 L 332 329.5 Q 331.3 335.3 335.5 336 L 340.5 337 L 345 333.5 L 345 332 L 347 332 Q 345.9 329.3 348.5 330 L 365 314.5 L 359 320.5 L 359.5 322 Q 358.3 319.8 357 322.5 L 359 325.5 L 356.5 324 L 355 324.5 L 357 328.5 L 356 332 Q 362 335.8 372.5 336 L 375.5 335 L 381.5 334 L 384.5 331 Q 388.3 331.8 389 329.5 L 389.5 325 L 390 340.5 Q 388.1 348.1 382.5 352 L 375.5 355 L 311.5 355 L 303 350.5 L 297 341.5 L 297 281 L 303.5 278 L 319.5 265 Z M 330 324 L 327 326 L 331 326 L 330 324 Z " />
    <path fill="rgb(37,124,125)" stroke="rgb(37,124,125)" stroke-width="1"
        opacity="0.9921568627450981" d="M 186.5 266 L 189 266.5 L 186.5 267 L 186.5 266 Z " />
    <path fill="rgb(37,124,125)" stroke="rgb(37,124,125)" stroke-width="1"
        opacity="0.9921568627450981" d="M 175.5 267 L 178 267.5 L 175.5 268 L 175.5 267 Z " />
    <path fill="rgb(37,124,125)" stroke="rgb(37,124,125)" stroke-width="1"
        opacity="0.9921568627450981" d="M 213.5 267 L 216 267.5 L 213.5 268 L 213.5 267 Z " />
    <path fill="rgb(37,124,125)" stroke="rgb(37,124,125)" stroke-width="1"
        opacity="0.9921568627450981" d="M 396.5 267 L 393.5 271 L 396.5 267 Z " />
    <path fill="rgb(37,124,125)" stroke="rgb(37,124,125)" stroke-width="1"
        opacity="0.9921568627450981" d="M 163.5 268 L 166 268.5 L 163.5 269 L 163.5 268 Z " />
    <path fill="rgb(37,124,125)" stroke="rgb(37,124,125)" stroke-width="1"
        opacity="0.9921568627450981" d="M 125.5 269 L 145 269.5 L 125.5 270 L 125.5 269 Z " />
    <path fill="rgb(37,124,125)" stroke="rgb(37,124,125)" stroke-width="1"
        opacity="0.9921568627450981" d="M 389.5 275 L 386.5 279 L 389.5 275 Z " />
    <path fill="rgb(37,124,125)" stroke="rgb(37,124,125)" stroke-width="1"
        opacity="0.9921568627450981" d="M 212.5 276 L 213.5 278 L 212.5 276 Z " />
    <path fill="rgb(37,124,125)" stroke="rgb(37,124,125)" stroke-width="1"
        opacity="0.9921568627450981"
        d="M 233.5 276 Q 235.8 275.3 235 277.5 L 232 279.5 Q 235.1 277.8 233.5 276 Z " />
    <path fill="rgb(37,124,125)" stroke="rgb(37,124,125)" stroke-width="1"
        opacity="0.9921568627450981" d="M 224.5 284 L 222.5 287 L 224.5 284 Z " />
    <path fill="rgb(37,124,125)" stroke="rgb(37,124,125)" stroke-width="1"
        opacity="0.9921568627450981" d="M 117.5 285 L 118.5 287 L 117.5 285 Z " />
    <path fill="rgb(37,124,125)" stroke="rgb(37,124,125)" stroke-width="1"
        opacity="0.9921568627450981" d="M 239.5 286 L 238.5 288 L 239.5 286 Z " />
    <path fill="rgb(37,124,125)" stroke="rgb(37,124,125)" stroke-width="1"
        opacity="0.9921568627450981" d="M 378.5 287 L 376.5 290 L 378.5 287 Z " />
    <path fill="rgb(37,124,125)" stroke="rgb(37,124,125)" stroke-width="1"
        opacity="0.9921568627450981"
        d="M 388.5 289 Q 391.3 288.4 390 294.5 L 389 294.5 L 388.5 290 L 386 291.5 L 388.5 289 Z " />
    <path fill="rgb(37,124,125)" stroke="rgb(37,124,125)" stroke-width="1"
        opacity="0.9921568627450981" d="M 251.5 290 L 250.5 292 L 251.5 290 Z " />
    <path fill="rgb(37,124,125)" stroke="rgb(37,124,125)" stroke-width="1"
        opacity="0.9921568627450981" d="M 139.5 291 L 142 291.5 L 139.5 292 L 139.5 291 Z " />
    <path fill="rgb(37,124,125)" stroke="rgb(37,124,125)" stroke-width="1"
        opacity="0.9921568627450981" d="M 214.5 293 L 213.5 295 L 214.5 293 Z " />
    <path fill="rgb(37,124,125)" stroke="rgb(37,124,125)" stroke-width="1"
        opacity="0.9921568627450981" d="M 236.5 294 L 235.5 296 L 236.5 294 Z " />
    <path fill="rgb(37,124,125)" stroke="rgb(37,124,125)" stroke-width="1"
        opacity="0.9921568627450981" d="M 384.5 294 L 376.5 303 L 384.5 294 Z " />
    <path fill="rgb(37,124,125)" stroke="rgb(37,124,125)" stroke-width="1"
        opacity="0.9921568627450981" d="M 389.5 296 L 390 311.5 L 389 311.5 L 389.5 296 Z " />
    <path fill="rgb(37,124,125)" stroke="rgb(37,124,125)" stroke-width="1"
        opacity="0.9921568627450981" d="M 252.5 297 L 251.5 299 L 252.5 297 Z " />
    <path fill="rgb(37,124,125)" stroke="rgb(37,124,125)" stroke-width="1"
        opacity="0.9921568627450981" d="M 208.5 298 L 207.5 300 L 208.5 298 Z " />
    <path fill="rgb(37,124,125)" stroke="rgb(37,124,125)" stroke-width="1"
        opacity="0.9921568627450981" d="M 233.5 298 L 228.5 304 L 233.5 298 Z " />
    <path fill="rgb(37,124,125)" stroke="rgb(37,124,125)" stroke-width="1"
        opacity="0.9921568627450981" d="M 244.5 299 L 243.5 301 L 244.5 299 Z " />
    <path fill="rgb(37,124,125)" stroke="rgb(37,124,125)" stroke-width="1"
        opacity="0.9921568627450981" d="M 248.5 303 L 247.5 305 L 248.5 303 Z " />
    <path fill="rgb(37,124,125)" stroke="rgb(37,124,125)" stroke-width="1"
        opacity="0.9921568627450981" d="M 200.5 304 L 199.5 306 L 200.5 304 Z " />
    <path fill="rgb(37,124,125)" stroke="rgb(37,124,125)" stroke-width="1"
        opacity="0.9921568627450981" d="M 128.5 306 L 129.5 308 L 128.5 306 Z " />
    <path fill="rgb(37,124,125)" stroke="rgb(37,124,125)" stroke-width="1"
        opacity="0.9921568627450981" d="M 212.5 306 L 211.5 308 L 212.5 306 Z " />
    <path fill="rgb(37,124,125)" stroke="rgb(37,124,125)" stroke-width="1"
        opacity="0.9921568627450981" d="M 237.5 308 L 235.5 311 L 237.5 308 Z " />
    <path fill="rgb(37,124,125)" stroke="rgb(37,124,125)" stroke-width="1"
        opacity="0.9921568627450981" d="M 194.5 309 L 193.5 311 L 194.5 309 Z " />
    <path fill="rgb(37,124,125)" stroke="rgb(37,124,125)" stroke-width="1"
        opacity="0.9921568627450981" d="M 208.5 309 L 207.5 311 L 208.5 309 Z " />
    <path fill="rgb(37,124,125)" stroke="rgb(37,124,125)" stroke-width="1"
        opacity="0.9921568627450981" d="M 131.5 310 L 136 313.5 L 134.5 314 L 131.5 310 Z " />
    <path fill="rgb(37,124,125)" stroke="rgb(37,124,125)" stroke-width="1"
        opacity="0.9921568627450981" d="M 355.5 311 L 344.5 323 L 355.5 311 Z " />
    <path fill="rgb(37,124,125)" stroke="rgb(37,124,125)" stroke-width="1"
        opacity="0.9921568627450981" d="M 204.5 312 L 203.5 314 L 204.5 312 Z " />
    <path fill="rgb(37,124,125)" stroke="rgb(37,124,125)" stroke-width="1"
        opacity="0.9921568627450981" d="M 220.5 313 L 219.5 315 L 220.5 313 Z " />
    <path fill="rgb(37,124,125)" stroke="rgb(37,124,125)" stroke-width="1"
        opacity="0.9921568627450981" d="M 233.5 313 L 231.5 316 L 233.5 313 Z " />
    <path fill="rgb(37,124,125)" stroke="rgb(37,124,125)" stroke-width="1"
        opacity="0.9921568627450981" d="M 186.5 315 L 185.5 317 L 186.5 315 Z " />
    <path fill="rgb(37,124,125)" stroke="rgb(37,124,125)" stroke-width="1"
        opacity="0.9921568627450981" d="M 200.5 315 L 199.5 317 L 200.5 315 Z " />
    <path fill="rgb(37,124,125)" stroke="rgb(37,124,125)" stroke-width="1"
        opacity="0.9921568627450981" d="M 217.5 317 L 215.5 320 L 217.5 317 Z " />
    <path fill="rgb(37,124,125)" stroke="rgb(37,124,125)" stroke-width="1"
        opacity="0.9921568627450981" d="M 179.5 320 L 178.5 322 L 179.5 320 Z " />
    <path fill="rgb(37,124,125)" stroke="rgb(37,124,125)" stroke-width="1"
        opacity="0.9921568627450981" d="M 194.5 320 L 193.5 322 L 194.5 320 Z " />
    <path fill="rgb(37,124,125)" stroke="rgb(37,124,125)" stroke-width="1"
        opacity="0.9921568627450981" d="M 188.5 324 L 187.5 326 L 188.5 324 Z " />
    <path fill="rgb(37,124,125)" stroke="rgb(37,124,125)" stroke-width="1"
        opacity="0.9921568627450981" d="M 223.5 324 L 220.5 328 L 223.5 324 Z " />
    <path fill="rgb(37,124,125)" stroke="rgb(37,124,125)" stroke-width="1"
        opacity="0.9921568627450981" d="M 171.5 326 L 170.5 328 L 171.5 326 Z " />
    <path fill="rgb(37,124,125)" stroke="rgb(37,124,125)" stroke-width="1"
        opacity="0.9921568627450981" d="M 209.5 326 L 208.5 328 L 209.5 326 Z " />
    <path fill="rgb(37,124,125)" stroke="rgb(37,124,125)" stroke-width="1"
        opacity="0.9921568627450981" d="M 339.5 326 L 338.5 328 L 339.5 326 Z " />
    <path fill="rgb(37,124,125)" stroke="rgb(37,124,125)" stroke-width="1"
        opacity="0.9921568627450981" d="M 184.5 327 L 183.5 329 L 184.5 327 Z " />
    <path fill="rgb(37,124,125)" stroke="rgb(37,124,125)" stroke-width="1"
        opacity="0.9921568627450981" d="M 233.5 328 L 232.5 330 L 233.5 328 Z " />
    <path fill="rgb(37,124,125)" stroke="rgb(37,124,125)" stroke-width="1"
        opacity="0.9921568627450981" d="M 167.5 329 L 166.5 331 L 167.5 329 Z " />
    <path fill="rgb(37,124,125)" stroke="rgb(37,124,125)" stroke-width="1"
        opacity="0.9921568627450981" d="M 180.5 330 L 179.5 332 L 180.5 330 Z " />
    <path fill="rgb(37,124,125)" stroke="rgb(37,124,125)" stroke-width="1"
        opacity="0.9921568627450981" d="M 218.5 330 L 216.5 333 L 218.5 330 Z " />
    <path fill="rgb(37,124,125)" stroke="rgb(37,124,125)" stroke-width="1"
        opacity="0.9921568627450981" d="M 163.5 332 L 162.5 334 L 163.5 332 Z " />
    <path fill="rgb(37,124,125)" stroke="rgb(37,124,125)" stroke-width="1"
        opacity="0.9921568627450981" d="M 204.5 332 L 200.5 337 L 204.5 332 Z " />
    <path fill="rgb(37,124,125)" stroke="rgb(37,124,125)" stroke-width="1"
        opacity="0.9921568627450981" d="M 230.5 333 L 229.5 335 L 230.5 333 Z " />
    <path fill="rgb(37,124,125)" stroke="rgb(37,124,125)" stroke-width="1"
        opacity="0.9921568627450981" d="M 175.5 334 L 174.5 336 L 175.5 334 Z " />
    <path fill="rgb(37,124,125)" stroke="rgb(37,124,125)" stroke-width="1"
        opacity="0.9921568627450981" d="M 210.5 339 L 205.5 345 L 210.5 339 Z " />
    <path fill="rgb(37,124,125)" stroke="rgb(37,124,125)" stroke-width="1"
        opacity="0.9921568627450981" d="M 194.5 343 L 191.5 347 L 194.5 343 Z " />
    <path fill="rgb(37,124,125)" stroke="rgb(37,124,125)" stroke-width="1"
        opacity="0.9921568627450981" d="M 224.5 343 L 223.5 345 L 224.5 343 Z " />
    <path fill="rgb(37,124,125)" stroke="rgb(37,124,125)" stroke-width="1"
        opacity="0.9921568627450981" d="M 148.5 344 L 149.5 346 L 148.5 344 Z " />
    <path fill="rgb(37,124,125)" stroke="rgb(37,124,125)" stroke-width="1"
        opacity="0.9921568627450981" d="M 162.5 347 L 165.5 351 L 162.5 347 Z " />
    <path fill="rgb(37,124,125)" stroke="rgb(37,124,125)" stroke-width="1"
        opacity="0.9921568627450981" d="M 187.5 351 L 186.5 353 L 187.5 351 Z " />
    <path fill="rgb(37,124,125)" stroke="rgb(37,124,125)" stroke-width="1"
        opacity="0.9921568627450981" d="M 199.5 351 L 198.5 353 L 199.5 351 Z " />
    <path fill="rgb(37,124,125)" stroke="rgb(37,124,125)" stroke-width="1"
        opacity="0.9921568627450981" d="M 168.5 352 L 169.5 354 L 168.5 352 Z " />
    <path fill="rgb(37,124,125)" stroke="rgb(37,124,125)" stroke-width="1"
        opacity="0.9921568627450981" d="M 196.5 355 L 193.5 359 L 196.5 355 Z " />
    <path fill="rgb(37,124,125)" stroke="rgb(37,124,125)" stroke-width="1"
        opacity="0.9921568627450981" d="M 216.5 358 L 215.5 360 L 216.5 358 Z " />
    <path fill="rgb(37,124,125)" stroke="rgb(37,124,125)" stroke-width="1"
        opacity="0.9921568627450981" d="M 213.5 363 L 212.5 365 L 213.5 363 Z " />
    <path fill="rgb(37,124,125)" stroke="rgb(37,124,125)" stroke-width="1"
        opacity="0.9921568627450981" d="M 195.5 368 L 198 369.5 L 196.5 369 L 195.5 368 Z " />
    <path fill="rgb(37,124,125)" stroke="rgb(37,124,125)" stroke-width="1"
        opacity="0.9921568627450981" d="M 209.5 370 L 207.5 373 L 205 372.5 L 209.5 370 Z " />
    <path fill="rgb(37,124,125)" stroke="rgb(37,124,125)" stroke-width="1"
        opacity="0.9921568627450981" d="M 209.5 390 L 210.5 392 L 209.5 390 Z " />
    <path fill="rgb(250,254,253)" stroke="rgb(250,254,253)" stroke-width="1"
        opacity="0.9921568627450981" d="M 105.5 67 L 106.5 69 L 105.5 67 Z " />
    <path fill="rgb(250,254,253)" stroke="rgb(250,254,253)" stroke-width="1"
        opacity="0.9921568627450981"
        d="M 105.5 80 L 117.5 90 L 148.5 110 L 189.5 132 L 199.5 136 L 230.5 154 L 247 160 L 248.5 163 L 251 164.5 L 253 167.5 L 260 173.5 L 263.5 178 Q 265.8 177.3 265 179.5 Q 279.2 192.8 286 213.5 L 284 212.5 L 276 200 L 273 198.5 L 257.5 182 L 235.5 167 L 167.5 131 L 128.5 107 L 127 107.5 Q 129.7 105.8 125.5 104 L 123.5 103 L 122 103.5 L 121 100 Q 117.3 101.5 118 98.5 L 106 82.5 L 105.5 80 Z " />
    <path fill="rgb(250,254,253)" stroke="rgb(250,254,253)" stroke-width="1"
        opacity="0.9921568627450981" d="M 231.5 98 L 232.5 100 L 231.5 98 Z " />
    <path fill="rgb(250,254,253)" stroke="rgb(250,254,253)" stroke-width="1"
        opacity="0.9921568627450981" d="M 124.5 106 L 125.5 108 L 124.5 106 Z " />
    <path fill="rgb(250,254,253)" stroke="rgb(250,254,253)" stroke-width="1"
        opacity="0.9921568627450981" d="M 128.5 109 L 130.5 112 L 128.5 109 Z " />
    <path fill="rgb(250,254,253)" stroke="rgb(250,254,253)" stroke-width="1"
        opacity="0.9921568627450981" d="M 100.5 128 L 101.5 130 L 100.5 128 Z " />
    <path fill="rgb(250,254,253)" stroke="rgb(250,254,253)" stroke-width="1"
        opacity="0.9921568627450981"
        d="M 281 143 L 284.5 144 L 308.5 144 L 309.5 143 L 340.5 143 L 349.5 145 L 359.5 150 L 364 154.5 L 367 160.5 Q 366.3 162.8 362.5 162 L 353.5 157 L 346.5 156 L 342.5 154 L 325.5 154 L 316.5 156 L 302.5 156 Q 292.8 153.8 286 148.5 Q 286.8 145.9 283.5 147 L 281 143 Z " />
    <path fill="rgb(250,254,253)" stroke="rgb(250,254,253)" stroke-width="1"
        opacity="0.9921568627450981"
        d="M 326.5 163 Q 330.3 162.3 331 164.5 Q 332.7 172.8 338.5 177 Q 343.6 179.4 352.5 178 L 360.5 173 L 354.5 180 L 346.5 182 L 331.5 189 L 309 204.5 L 313.5 209 L 316.5 209 L 326.5 203 L 327 204.5 L 313 231.5 L 297.5 248 L 283.5 258 L 267.5 265 L 255.5 269 L 239.5 271 L 238 267 Q 234.6 265.3 227.5 266 L 226.5 267 L 204.5 268 L 175.5 276 L 154.5 280 L 135.5 282 L 118 286 L 110 270.5 L 111.5 270 L 112.5 271 L 120.5 271 L 121.5 270 L 158.5 270 L 159.5 269 L 182.5 268 L 183.5 267 L 191.5 267 L 192.5 266 L 215.5 263 L 220.5 261 L 225.5 261 L 258.5 250 Q 272.4 242.8 282 231.5 L 286.5 226 L 290 225 L 290 204.5 L 289 199.5 L 278 179.5 L 283.5 177 L 297.5 165 L 302.5 165 Q 303.8 167.3 308.5 166 L 309.5 165 L 317.5 165 L 326.5 163 Z " />
    <path fill="rgb(250,254,253)" stroke="rgb(250,254,253)" stroke-width="1"
        opacity="0.9921568627450981"
        d="M 374.5 168 L 379.5 169 L 386 175.5 Q 389.7 178.3 389 185.5 L 384.5 182 L 379.5 180 L 366 179.5 L 374.5 168 Z M 376 169 Q 373 170 374 174 L 378 175 Q 381 174 380 170 L 376 169 Z " />
    <path fill="rgb(250,254,253)" stroke="rgb(250,254,253)" stroke-width="1"
        opacity="0.9921568627450981" d="M 394.5 170 L 395.5 172 L 394.5 170 Z " />
    <path fill="rgb(250,254,253)" stroke="rgb(250,254,253)" stroke-width="1"
        opacity="0.9921568627450981"
        d="M 340.5 241 L 358.5 241 Q 359.5 241 359 245.5 L 358 246.5 L 358 255 L 331.5 255 L 331 253.5 L 336.5 247 L 339 246.5 L 337 246 L 340.5 241 Z " />
    <path fill="rgb(250,254,253)" stroke="rgb(250,254,253)" stroke-width="1"
        opacity="0.9921568627450981"
        d="M 395.5 260 Q 400.9 258.1 400 261.5 Q 374.2 293.7 344.5 322 L 336.5 328 L 323 317.5 L 319.5 313 L 310 304.5 Q 309.3 302.3 311.5 303 Q 314.6 297.1 322.5 296 L 339.5 310 L 344 304 L 364 287.5 L 367.5 283 L 395.5 260 Z " />
    <path fill="rgb(250,254,253)" stroke="rgb(250,254,253)" stroke-width="1"
        opacity="0.9921568627450981"
        d="M 207.5 278 L 210 278.5 L 176.5 295 L 134.5 313 L 123 296.5 L 124.5 295 Q 130.6 295.6 133.5 293 L 154.5 290 L 170.5 286 L 175.5 286 L 207.5 278 Z " />
    <path fill="rgb(250,254,253)" stroke="rgb(250,254,253)" stroke-width="1"
        opacity="0.9921568627450981"
        d="M 230.5 278 L 233 278.5 L 226.5 282 L 206.5 300 L 155.5 338 L 141 321.5 L 161.5 311 L 187.5 301 L 230.5 278 Z " />
    <path fill="rgb(250,254,253)" stroke="rgb(250,254,253)" stroke-width="1"
        opacity="0.9921568627450981"
        d="M 232.5 292 L 230 295.5 L 223.5 303 L 221 304.5 L 215 313.5 L 198 331.5 L 194 338.5 L 176.5 357 L 164 349 L 162 344 L 172.5 338 L 232.5 292 Z " />
    <path fill="rgb(187,211,217)" stroke="rgb(187,211,217)" stroke-width="1" opacity="1"
        d="M 107.5 81 L 108.5 83 L 107.5 81 Z " />
    <path fill="rgb(187,211,217)" stroke="rgb(187,211,217)" stroke-width="1" opacity="1"
        d="M 112.5 92 L 113.5 94 L 112.5 92 Z " />
    <path fill="rgb(187,211,217)" stroke="rgb(187,211,217)" stroke-width="1" opacity="1"
        d="M 115.5 96 L 117.5 99 L 115.5 96 Z " />
    <path fill="rgb(187,211,217)" stroke="rgb(187,211,217)" stroke-width="1" opacity="1"
        d="M 128.5 96 L 129.5 98 L 128.5 96 Z " />
    <path fill="rgb(187,211,217)" stroke="rgb(187,211,217)" stroke-width="1" opacity="1"
        d="M 119 100 Q 121.7 98.9 121 101.5 L 122.5 104 L 124.5 104 L 136.5 113 Q 153.5 120.5 167.5 131 L 235.5 167 L 257.5 182 L 273 197.5 L 274.5 200 Q 276.8 199.3 276 201.5 Q 281.8 205.8 284.5 213 L 286 212.5 L 285.5 214 L 287 214.5 L 286 215.5 L 287.5 218 L 282.5 212 L 279 209.5 Q 269 193.5 254.5 182 L 218.5 161 L 205.5 156 L 158.5 132 L 135 116.5 Q 135.8 113.9 132.5 115 L 127 110.5 Q 127.8 108.3 125.5 109 Q 119.8 106.1 119 100 Z " />
    <path fill="rgb(187,211,217)" stroke="rgb(187,211,217)" stroke-width="1" opacity="1"
        d="M 134.5 100 L 135.5 102 L 134.5 100 Z " />
    <path fill="rgb(187,211,217)" stroke="rgb(187,211,217)" stroke-width="1" opacity="1"
        d="M 284.5 143 L 291 143.5 L 284.5 144 L 284.5 143 Z " />
    <path fill="rgb(187,211,217)" stroke="rgb(187,211,217)" stroke-width="1" opacity="1"
        d="M 294.5 143 L 309 143.5 L 294.5 144 L 294.5 143 Z " />
    <path fill="rgb(187,211,217)" stroke="rgb(187,211,217)" stroke-width="1" opacity="1"
        d="M 284.5 147 Q 286.8 146.3 286 148.5 L 284.5 147 Z " />
    <path fill="rgb(187,211,217)" stroke="rgb(187,211,217)" stroke-width="1" opacity="1"
        d="M 362.5 152 L 363.5 154 L 362.5 152 Z " />
    <path fill="rgb(187,211,217)" stroke="rgb(187,211,217)" stroke-width="1" opacity="1"
        d="M 340.5 154 L 343 154.5 L 340.5 155 L 340.5 154 Z " />
    <path fill="rgb(187,211,217)" stroke="rgb(187,211,217)" stroke-width="1" opacity="1"
        d="M 317.5 155 L 320 155.5 L 317.5 156 L 317.5 155 Z " />
    <path fill="rgb(187,211,217)" stroke="rgb(187,211,217)" stroke-width="1" opacity="1"
        d="M 244.5 158 L 245.5 160 L 244.5 158 Z " />
    <path fill="rgb(187,211,217)" stroke="rgb(187,211,217)" stroke-width="1" opacity="1"
        d="M 367.5 160 L 366.5 162 L 367.5 160 Z " />
    <path fill="rgb(187,211,217)" stroke="rgb(187,211,217)" stroke-width="1" opacity="1"
        d="M 247.5 161 L 248.5 163 L 247.5 161 Z " />
    <path fill="rgb(187,211,217)" stroke="rgb(187,211,217)" stroke-width="1" opacity="1"
        d="M 323.5 163 L 326 163.5 L 323.5 164 L 323.5 163 Z " />
    <path fill="rgb(187,211,217)" stroke="rgb(187,211,217)" stroke-width="1" opacity="1"
        d="M 303.5 165 L 309 165.5 L 303.5 166 L 303.5 165 Z " />
    <path fill="rgb(187,211,217)" stroke="rgb(187,211,217)" stroke-width="1" opacity="1"
        d="M 295.5 166 L 291.5 171 L 295.5 166 Z " />
    <path fill="rgb(187,211,217)" stroke="rgb(187,211,217)" stroke-width="1" opacity="1"
        d="M 253.5 167 L 256.5 171 L 253.5 167 Z " />
    <path fill="rgb(187,211,217)" stroke="rgb(187,211,217)" stroke-width="1" opacity="1"
        d="M 378.5 168 L 377.5 170 L 378.5 168 Z " />
    <path fill="rgb(187,211,217)" stroke="rgb(187,211,217)" stroke-width="1" opacity="1"
        d="M 375.5 169 L 374.5 171 L 375.5 169 Z " />
    <path fill="rgb(187,211,217)" stroke="rgb(187,211,217)" stroke-width="1" opacity="1"
        d="M 381.5 170 L 384.5 174 L 381.5 170 Z " />
    <path fill="rgb(187,211,217)" stroke="rgb(187,211,217)" stroke-width="1" opacity="1"
        d="M 361.5 171 L 362 173 L 359 174.5 L 360 175.5 L 356.5 179 L 359 175.5 L 358 174.5 L 361.5 171 Z " />
    <path fill="rgb(187,211,217)" stroke="rgb(187,211,217)" stroke-width="1" opacity="1"
        d="M 288.5 172 L 287.5 174 L 288.5 172 Z " />
    <path fill="rgb(187,211,217)" stroke="rgb(187,211,217)" stroke-width="1" opacity="1"
        d="M 335.5 173 L 338.5 177 L 335.5 173 Z " />
    <path fill="rgb(187,211,217)" stroke="rgb(187,211,217)" stroke-width="1" opacity="1"
        d="M 374.5 173 L 375.5 175 L 374.5 173 Z " />
    <path fill="rgb(187,211,217)" stroke="rgb(187,211,217)" stroke-width="1" opacity="1"
        d="M 260.5 174 L 263.5 178 L 260.5 174 Z " />
    <path fill="rgb(187,211,217)" stroke="rgb(187,211,217)" stroke-width="1" opacity="1"
        d="M 284.5 175 L 283.5 177 L 284.5 175 Z " />
    <path fill="rgb(187,211,217)" stroke="rgb(187,211,217)" stroke-width="1" opacity="1"
        d="M 368.5 176 L 367.5 178 L 368.5 176 Z " />
    <path fill="rgb(187,211,217)" stroke="rgb(187,211,217)" stroke-width="1" opacity="1"
        d="M 265.5 179 L 266.5 181 L 265.5 179 Z " />
    <path fill="rgb(187,211,217)" stroke="rgb(187,211,217)" stroke-width="1" opacity="1"
        d="M 377.5 180 L 380 180.5 L 377.5 181 L 377.5 180 Z " />
    <path fill="rgb(187,211,217)" stroke="rgb(187,211,217)" stroke-width="1" opacity="1"
        d="M 384.5 182 L 388.5 187 L 384.5 182 Z " />
    <path fill="rgb(187,211,217)" stroke="rgb(187,211,217)" stroke-width="1" opacity="1"
        d="M 328.5 191 L 327.5 193 L 328.5 191 Z " />
    <path fill="rgb(187,211,217)" stroke="rgb(187,211,217)" stroke-width="1" opacity="1"
        d="M 316.5 199 L 315.5 201 L 316.5 199 Z " />
    <path fill="rgb(187,211,217)" stroke="rgb(187,211,217)" stroke-width="1" opacity="1"
        d="M 310.5 203 L 309.5 205 L 310.5 203 Z " />
    <path fill="rgb(187,211,217)" stroke="rgb(187,211,217)" stroke-width="1" opacity="1"
        d="M 289.5 215 L 290 220.5 L 289 220.5 L 289.5 215 Z " />
    <path fill="rgb(187,211,217)" stroke="rgb(187,211,217)" stroke-width="1" opacity="1"
        d="M 314.5 229 L 313.5 231 L 314.5 229 Z " />
    <path fill="rgb(187,211,217)" stroke="rgb(187,211,217)" stroke-width="1" opacity="1"
        d="M 311.5 233 L 310.5 235 L 311.5 233 Z " />
    <path fill="rgb(187,211,217)" stroke="rgb(187,211,217)" stroke-width="1" opacity="1"
        d="M 275.5 237 L 273.5 240 L 275.5 237 Z " />
    <path fill="rgb(187,211,217)" stroke="rgb(187,211,217)" stroke-width="1" opacity="1"
        d="M 308.5 237 L 306.5 240 L 308.5 237 Z " />
    <path fill="rgb(187,211,217)" stroke="rgb(187,211,217)" stroke-width="1" opacity="1"
        d="M 423.5 237 L 424.5 239 L 423.5 237 Z " />
    <path fill="rgb(187,211,217)" stroke="rgb(187,211,217)" stroke-width="1" opacity="1"
        d="M 271.5 240 L 270.5 242 L 271.5 240 Z " />
    <path fill="rgb(187,211,217)" stroke="rgb(187,211,217)" stroke-width="1" opacity="1"
        d="M 339.5 241 L 338.5 243 L 339.5 241 Z " />
    <path fill="rgb(187,211,217)" stroke="rgb(187,211,217)" stroke-width="1" opacity="1"
        d="M 302.5 243 L 299.5 247 L 302.5 243 Z " />
    <path fill="rgb(187,211,217)" stroke="rgb(187,211,217)" stroke-width="1" opacity="1"
        d="M 341.5 243 L 341.5 245 L 343.5 244 L 343.5 247 L 340 244.5 L 341.5 243 Z " />
    <path fill="rgb(187,211,217)" stroke="rgb(187,211,217)" stroke-width="1" opacity="1"
        d="M 336.5 246 L 339 246.5 L 336.5 247 L 336.5 246 Z " />
    <path fill="rgb(187,211,217)" stroke="rgb(187,211,217)" stroke-width="1" opacity="1"
        d="M 358.5 246 L 359 248.5 L 358 248.5 L 358.5 246 Z " />
    <path fill="rgb(187,211,217)" stroke="rgb(187,211,217)" stroke-width="1" opacity="1"
        d="M 296.5 248 L 294.5 251 L 296.5 248 Z " />
    <path fill="rgb(187,211,217)" stroke="rgb(187,211,217)" stroke-width="1" opacity="1"
        d="M 291.5 252 L 290.5 254 L 291.5 252 Z " />
    <path fill="rgb(187,211,217)" stroke="rgb(187,211,217)" stroke-width="1" opacity="1"
        d="M 288.5 254 L 287.5 256 L 288.5 254 Z " />
    <path fill="rgb(187,211,217)" stroke="rgb(187,211,217)" stroke-width="1" opacity="1"
        d="M 341.5 255 L 355 255.5 L 341.5 256 L 341.5 255 Z " />
    <path fill="rgb(187,211,217)" stroke="rgb(187,211,217)" stroke-width="1" opacity="1"
        d="M 397.5 259 L 400 259.5 L 397.5 260 L 397.5 259 Z " />
    <path fill="rgb(187,211,217)" stroke="rgb(187,211,217)" stroke-width="1" opacity="1"
        d="M 391.5 262 L 390.5 264 L 391.5 262 Z " />
    <path fill="rgb(187,211,217)" stroke="rgb(187,211,217)" stroke-width="1" opacity="1"
        d="M 397.5 265 L 396.5 267 L 397.5 265 Z " />
    <path fill="rgb(187,211,217)" stroke="rgb(187,211,217)" stroke-width="1" opacity="1"
        d="M 227.5 266 L 235 266.5 L 227.5 267 L 227.5 266 Z " />
    <path fill="rgb(187,211,217)" stroke="rgb(187,211,217)" stroke-width="1" opacity="1"
        d="M 386.5 266 L 383.5 270 L 386.5 266 Z " />
    <path fill="rgb(187,211,217)" stroke="rgb(187,211,217)" stroke-width="1" opacity="1"
        d="M 179.5 267 L 183 267.5 L 179.5 268 L 179.5 267 Z " />
    <path fill="rgb(187,211,217)" stroke="rgb(187,211,217)" stroke-width="1" opacity="1"
        d="M 168.5 268 L 172 268.5 L 168.5 269 L 168.5 268 Z " />
    <path fill="rgb(187,211,217)" stroke="rgb(187,211,217)" stroke-width="1" opacity="1"
        d="M 150.5 269 L 159 269.5 L 150.5 270 L 150.5 269 Z " />
    <path fill="rgb(187,211,217)" stroke="rgb(187,211,217)" stroke-width="1" opacity="1"
        d="M 250.5 269 L 253 269.5 L 250.5 270 L 250.5 269 Z " />
    <path fill="rgb(187,211,217)" stroke="rgb(187,211,217)" stroke-width="1" opacity="1"
        d="M 112.5 270 L 121 270.5 L 112.5 271 L 112.5 270 Z " />
    <path fill="rgb(187,211,217)" stroke="rgb(187,211,217)" stroke-width="1" opacity="1"
        d="M 242.5 270 L 246 270.5 L 242.5 271 L 242.5 270 Z " />
    <path fill="rgb(187,211,217)" stroke="rgb(187,211,217)" stroke-width="1" opacity="1"
        d="M 380.5 271 L 371.5 281 L 380.5 271 Z " />
    <path fill="rgb(187,211,217)" stroke="rgb(187,211,217)" stroke-width="1" opacity="1"
        d="M 392.5 271 L 389.5 275 L 392.5 271 Z " />
    <path fill="rgb(187,211,217)" stroke="rgb(187,211,217)" stroke-width="1" opacity="1"
        d="M 210 277 L 213 277.5 L 210.5 279 L 210 277 Z " />
    <path fill="rgb(187,211,217)" stroke="rgb(187,211,217)" stroke-width="1" opacity="1"
        d="M 384.5 280 L 378.5 287 L 384.5 280 Z " />
    <path fill="rgb(187,211,217)" stroke="rgb(187,211,217)" stroke-width="1" opacity="1"
        d="M 369.5 281 L 368.5 283 L 369.5 281 Z " />
    <path fill="rgb(187,211,217)" stroke="rgb(187,211,217)" stroke-width="1" opacity="1"
        d="M 221.5 286 L 216.5 292 L 221.5 286 Z " />
    <path fill="rgb(187,211,217)" stroke="rgb(187,211,217)" stroke-width="1" opacity="1"
        d="M 240.5 286 L 241 287.5 L 234 297.5 L 183 355.5 L 183 357 L 178.5 358 L 177 356.5 L 181 352.5 L 215 313.5 L 222.5 303 L 230 296.5 L 231 294.5 Q 228.8 293.3 231.5 292 L 233 292.5 Q 232.3 290.3 234.5 291 L 240.5 286 Z " />
    <path fill="rgb(187,211,217)" stroke="rgb(187,211,217)" stroke-width="1" opacity="1"
        d="M 363.5 287 L 362.5 289 L 363.5 287 Z " />
    <path fill="rgb(187,211,217)" stroke="rgb(187,211,217)" stroke-width="1" opacity="1"
        d="M 252.5 290 Q 256.3 288.8 255 292.5 L 246 307 L 244 307.5 Q 246.5 309 243 310.5 L 208 372 L 199.5 370 L 189 364.5 L 236 311.5 L 241 303 L 244 301.5 L 244.5 300 L 246 300.5 L 246 298.5 L 252.5 290 Z " />
    <path fill="rgb(187,211,217)" stroke="rgb(187,211,217)" stroke-width="1" opacity="1"
        d="M 357.5 292 L 351.5 299 L 357.5 292 Z " />
    <path fill="rgb(187,211,217)" stroke="rgb(187,211,217)" stroke-width="1" opacity="1"
        d="M 212.5 294 L 210.5 297 L 212.5 294 Z " />
    <path fill="rgb(187,211,217)" stroke="rgb(187,211,217)" stroke-width="1" opacity="1"
        d="M 371.5 294 L 357.5 309 L 371.5 294 Z " />
    <path fill="rgb(187,211,217)" stroke="rgb(187,211,217)" stroke-width="1" opacity="1"
        d="M 323.5 296 L 324.5 298 L 323.5 296 Z " />
    <path fill="rgb(187,211,217)" stroke="rgb(187,211,217)" stroke-width="1" opacity="1"
        d="M 317.5 297 L 316.5 299 L 317.5 297 Z " />
    <path fill="rgb(187,211,217)" stroke="rgb(187,211,217)" stroke-width="1" opacity="1"
        d="M 223.5 298 L 222.5 300 L 223.5 298 Z " />
    <path fill="rgb(187,211,217)" stroke="rgb(187,211,217)" stroke-width="1" opacity="1"
        d="M 314.5 299 L 311.5 303 L 314.5 299 Z " />
    <path fill="rgb(187,211,217)" stroke="rgb(187,211,217)" stroke-width="1" opacity="1"
        d="M 205.5 300 L 204.5 302 L 205.5 300 Z " />
    <path fill="rgb(187,211,217)" stroke="rgb(187,211,217)" stroke-width="1" opacity="1"
        d="M 348.5 300 L 345.5 304 L 348.5 300 Z " />
    <path fill="rgb(187,211,217)" stroke="rgb(187,211,217)" stroke-width="1" opacity="1"
        d="M 125.5 301 L 126.5 303 L 125.5 301 Z " />
    <path fill="rgb(187,211,217)" stroke="rgb(187,211,217)" stroke-width="1" opacity="1"
        d="M 202.5 302 L 201.5 304 L 202.5 302 Z " />
    <path fill="rgb(187,211,217)" stroke="rgb(187,211,217)" stroke-width="1" opacity="1"
        d="M 330.5 302 L 333.5 306 L 330.5 302 Z " />
    <path fill="rgb(187,211,217)" stroke="rgb(187,211,217)" stroke-width="1" opacity="1"
        d="M 198.5 305 L 195.5 309 L 198.5 305 Z " />
    <path fill="rgb(187,211,217)" stroke="rgb(187,211,217)" stroke-width="1" opacity="1"
        d="M 343.5 305 L 339.5 310 L 343.5 305 Z " />
    <path fill="rgb(187,211,217)" stroke="rgb(187,211,217)" stroke-width="1" opacity="1"
        d="M 130.5 308 L 131.5 310 L 130.5 308 Z " />
    <path fill="rgb(187,211,217)" stroke="rgb(187,211,217)" stroke-width="1" opacity="1"
        d="M 210.5 308 L 208.5 311 L 210.5 308 Z " />
    <path fill="rgb(187,211,217)" stroke="rgb(187,211,217)" stroke-width="1" opacity="1"
        d="M 192.5 310 L 191.5 312 L 192.5 310 Z " />
    <path fill="rgb(187,211,217)" stroke="rgb(187,211,217)" stroke-width="1" opacity="1"
        d="M 188.5 313 L 187.5 315 L 188.5 313 Z " />
    <path fill="rgb(187,211,217)" stroke="rgb(187,211,217)" stroke-width="1" opacity="1"
        d="M 319.5 313 L 322.5 317 L 319.5 313 Z " />
    <path fill="rgb(187,211,217)" stroke="rgb(187,211,217)" stroke-width="1" opacity="1"
        d="M 202.5 314 L 201.5 316 L 202.5 314 Z " />
    <path fill="rgb(187,211,217)" stroke="rgb(187,211,217)" stroke-width="1" opacity="1"
        d="M 198.5 317 L 195.5 321 L 198.5 317 Z " />
    <path fill="rgb(187,211,217)" stroke="rgb(187,211,217)" stroke-width="1" opacity="1"
        d="M 325.5 319 L 327.5 322 L 325.5 319 Z " />
    <path fill="rgb(187,211,217)" stroke="rgb(187,211,217)" stroke-width="1" opacity="1"
        d="M 329.5 322 L 330.5 324 L 329.5 322 Z " />
    <path fill="rgb(187,211,217)" stroke="rgb(187,211,217)" stroke-width="1" opacity="1"
        d="M 343.5 322 L 341.5 325 L 343.5 322 Z " />
    <path fill="rgb(187,211,217)" stroke="rgb(187,211,217)" stroke-width="1" opacity="1"
        d="M 190.5 323 L 189.5 325 L 190.5 323 Z " />
    <path fill="rgb(187,211,217)" stroke="rgb(187,211,217)" stroke-width="1" opacity="1"
        d="M 143.5 325 L 144.5 327 L 143.5 325 Z " />
    <path fill="rgb(187,211,217)" stroke="rgb(187,211,217)" stroke-width="1" opacity="1"
        d="M 146.5 329 L 149.5 333 L 146.5 329 Z " />
    <path fill="rgb(187,211,217)" stroke="rgb(187,211,217)" stroke-width="1" opacity="1"
        d="M 182.5 329 L 181.5 331 L 182.5 329 Z " />
    <path fill="rgb(187,211,217)" stroke="rgb(187,211,217)" stroke-width="1" opacity="1"
        d="M 165.5 330 L 164.5 332 L 165.5 330 Z " />
    <path fill="rgb(187,211,217)" stroke="rgb(187,211,217)" stroke-width="1" opacity="1"
        d="M 178.5 332 L 176.5 335 L 178.5 332 Z " />
    <path fill="rgb(187,211,217)" stroke="rgb(187,211,217)" stroke-width="1" opacity="1"
        d="M 161.5 333 L 160.5 335 L 161.5 333 Z " />
    <path fill="rgb(187,211,217)" stroke="rgb(187,211,217)" stroke-width="1" opacity="1"
        d="M 151.5 334 L 152.5 336 L 151.5 334 Z " />
    <path fill="rgb(187,211,217)" stroke="rgb(187,211,217)" stroke-width="1" opacity="1"
        d="M 157.5 336 L 156.5 338 L 157.5 336 Z " />
    <path fill="rgb(187,211,217)" stroke="rgb(187,211,217)" stroke-width="1" opacity="1"
        d="M 173.5 336 L 172.5 338 L 173.5 336 Z " />
    <path fill="rgb(187,211,217)" stroke="rgb(187,211,217)" stroke-width="1" opacity="1"
        d="M 161.5 345 L 163.5 348 L 161.5 345 Z " />
    <path fill="rgb(187,211,217)" stroke="rgb(187,211,217)" stroke-width="1" opacity="1"
        d="M 165.5 349 L 166.5 351 L 165.5 349 Z " />
    <path fill="rgb(187,211,217)" stroke="rgb(187,211,217)" stroke-width="1" opacity="1"
        d="M 169.5 352 L 170.5 354 L 169.5 352 Z " />
    <path fill="rgb(59,183,175)" stroke="rgb(59,183,175)" stroke-width="1"
        opacity="0.996078431372549"
        d="M 195.5 75 L 196 77 L 198 77.5 L 197.5 79 Q 202.5 78.5 203 82.5 Q 202.5 87.5 206.5 88 Q 208.8 87.3 208 89.5 L 212 92 Q 210.8 95 214.5 94 L 216 97 Q 218.7 95.9 218 98.5 L 260 134.5 L 267 144.5 L 266.5 146 L 271 149.5 L 272 151.5 L 268.5 152 L 250 137.5 Q 251.1 134.2 248.5 135 L 245 133.5 L 245.5 132 L 243.5 133 L 242.5 130 L 240.5 131 L 236 127.5 L 236.5 126 Q 233.2 127.1 234 124.5 Q 231.7 126.2 229.5 122 L 220 114.5 Q 220.8 112.3 218.5 113 L 208 103.5 L 206 100.5 L 206 98.5 Q 206.8 96.3 204.5 97 L 203 97.5 L 204 95 L 201 93.5 L 199 90.5 L 195 81.5 L 195.5 75 Z " />
    <path fill="rgb(59,183,175)" stroke="rgb(59,183,175)" stroke-width="1"
        opacity="0.996078431372549"
        d="M 104.5 110 L 123.5 120 L 137.5 130 L 160.5 143 L 221.5 174 L 234.5 179 L 268.5 198 L 268.5 196 L 281.5 212 L 284 213.5 L 286.5 217 L 288 216.5 L 287.5 219 L 282.5 214 L 275 211 L 273 207.5 L 274 204.5 L 272.5 205 L 258.5 197 L 247.5 194 L 223.5 183 L 202.5 176 L 195.5 172 L 152.5 156 L 128.5 144 L 115 131.5 L 105 114.5 L 104.5 110 Z " />
    <path fill="rgb(59,183,175)" stroke="rgb(59,183,175)" stroke-width="1"
        opacity="0.996078431372549" d="M 291.5 143 L 294 143.5 L 291.5 144 L 291.5 143 Z " />
    <path fill="rgb(59,183,175)" stroke="rgb(59,183,175)" stroke-width="1"
        opacity="0.996078431372549"
        d="M 123.5 160 L 143.5 166 L 169.5 177 L 195.5 185 L 200.5 188 L 220.5 194 L 223.5 196 L 272 209.5 L 270 210.5 L 273 211.5 L 268.5 212 L 267.5 211 L 260.5 211 L 259.5 210 L 242.5 208 L 217.5 201 L 190.5 196 L 182.5 193 L 173.5 192 L 151.5 186 Q 137.1 181.4 129 170.5 L 123.5 160 Z " />
    <path fill="rgb(59,183,175)" stroke="rgb(59,183,175)" stroke-width="1"
        opacity="0.996078431372549"
        d="M 340 162 L 345.5 163 L 352 167.5 Q 352.8 169.8 350.5 169 Q 349.2 171.2 344.5 170 Q 340.1 167.6 340 162 Z " />
    <path fill="rgb(59,183,175)" stroke="rgb(59,183,175)" stroke-width="1"
        opacity="0.996078431372549" d="M 289.5 206 L 290 209.5 L 289 209.5 L 289.5 206 Z " />
    <path fill="rgb(59,183,175)" stroke="rgb(59,183,175)" stroke-width="1"
        opacity="0.996078431372549" d="M 289.5 212 L 290 214.5 L 289 214.5 L 289.5 212 Z " />
    <path fill="rgb(59,183,175)" stroke="rgb(59,183,175)" stroke-width="1"
        opacity="0.996078431372549" d="M 289.5 221 L 290 223.5 L 289 223.5 L 289.5 221 Z " />
    <path fill="rgb(59,183,175)" stroke="rgb(59,183,175)" stroke-width="1"
        opacity="0.996078431372549" d="M 313.5 231 L 312.5 233 L 313.5 231 Z " />
    <path fill="rgb(59,183,175)" stroke="rgb(59,183,175)" stroke-width="1"
        opacity="0.996078431372549" d="M 280.5 232 L 276.5 237 L 280.5 232 Z " />
    <path fill="rgb(59,183,175)" stroke="rgb(59,183,175)" stroke-width="1"
        opacity="0.996078431372549" d="M 310.5 235 L 309.5 237 L 310.5 235 Z " />
    <path fill="rgb(59,183,175)" stroke="rgb(59,183,175)" stroke-width="1"
        opacity="0.996078431372549" d="M 422.5 237 L 424.5 240 L 422.5 237 Z " />
    <path fill="rgb(59,183,175)" stroke="rgb(59,183,175)" stroke-width="1"
        opacity="0.996078431372549" d="M 305.5 240 L 303.5 243 L 305.5 240 Z " />
    <path fill="rgb(59,183,175)" stroke="rgb(59,183,175)" stroke-width="1"
        opacity="0.996078431372549" d="M 340.5 240 L 343 240.5 L 340.5 241 L 340.5 240 Z " />
    <path fill="rgb(59,183,175)" stroke="rgb(59,183,175)" stroke-width="1"
        opacity="0.996078431372549" d="M 298.5 247 L 297.5 249 L 298.5 247 Z " />
    <path fill="rgb(59,183,175)" stroke="rgb(59,183,175)" stroke-width="1"
        opacity="0.996078431372549" d="M 355.5 255 L 358 255.5 L 355.5 256 L 355.5 255 Z " />
    <path fill="rgb(59,183,175)" stroke="rgb(59,183,175)" stroke-width="1"
        opacity="0.996078431372549"
        d="M 335.5 265 L 380.5 265 L 382 266.5 L 383 269.5 L 338.5 310 L 337 307 L 323.5 296 L 319.5 296 L 310.5 303 L 307.5 303 L 307 300.5 L 308 298.5 L 308 296.5 L 310 292.5 L 309.5 291 Q 312.1 291.8 311 288.5 L 312 285 L 314 285 Q 312.9 282.3 315.5 283 L 326 274.5 Q 324.1 269.1 327.5 270 L 335.5 265 Z " />
    <path fill="rgb(59,183,175)" stroke="rgb(59,183,175)" stroke-width="1"
        opacity="0.996078431372549" d="M 237.5 268 L 239 271.5 L 237 270.5 L 237.5 268 Z " />
    <path fill="rgb(59,183,175)" stroke="rgb(59,183,175)" stroke-width="1"
        opacity="0.996078431372549" d="M 145.5 269 L 150 269.5 L 145.5 270 L 145.5 269 Z " />
    <path fill="rgb(59,183,175)" stroke="rgb(59,183,175)" stroke-width="1"
        opacity="0.996078431372549"
        d="M 252.5 289 L 256 290.5 L 254.5 290 Q 251.5 290.5 252.5 289 Z " />
    <path fill="rgb(59,183,175)" stroke="rgb(59,183,175)" stroke-width="1"
        opacity="0.996078431372549" d="M 375.5 290 L 372.5 294 L 375.5 290 Z " />
    <path fill="rgb(59,183,175)" stroke="rgb(59,183,175)" stroke-width="1"
        opacity="0.996078431372549"
        d="M 388.5 290 L 390 295.5 L 389 296.5 L 389 311.5 L 390 312.5 L 390 324.5 L 387.5 331 L 384.5 331 L 381.5 334 L 374.5 336 L 372.5 336 Q 362 335.8 356 332 L 357 328.5 L 355 324.5 L 357 324 L 357 322.5 L 375.5 303 L 385 294.5 L 388.5 290 Z " />
    <path fill="rgb(59,183,175)" stroke="rgb(59,183,175)" stroke-width="1"
        opacity="0.996078431372549"
        d="M 247.5 296 L 246 298.5 L 245.5 301 L 245 298.5 L 247.5 296 Z " />
    <path fill="rgb(59,183,175)" stroke="rgb(59,183,175)" stroke-width="1"
        opacity="0.996078431372549" d="M 243.5 301 L 242.5 303 L 243.5 301 Z " />
    <path fill="rgb(59,183,175)" stroke="rgb(59,183,175)" stroke-width="1"
        opacity="0.996078431372549" d="M 247.5 301 L 250 301.5 Q 247.9 304.8 247.5 301 Z " />
    <path fill="rgb(59,183,175)" stroke="rgb(59,183,175)" stroke-width="1"
        opacity="0.996078431372549" d="M 227.5 304 L 226.5 306 L 227.5 304 Z " />
    <path fill="rgb(59,183,175)" stroke="rgb(59,183,175)" stroke-width="1"
        opacity="0.996078431372549"
        d="M 309.5 304 L 319.5 315 L 317 314.5 Q 319.3 313.3 316.5 312 L 315 312.5 L 315.5 311 L 313.5 312 L 311 308.5 Q 313.3 307.3 310.5 306 L 309.5 308 L 309 306.5 L 309.5 304 Z " />
    <path fill="rgb(59,183,175)" stroke="rgb(59,183,175)" stroke-width="1"
        opacity="0.996078431372549" d="M 242.5 305 L 246 307.5 L 244.5 308 L 242.5 305 Z " />
    <path fill="rgb(59,183,175)" stroke="rgb(59,183,175)" stroke-width="1"
        opacity="0.996078431372549" d="M 239.5 306 L 238.5 308 L 239.5 306 Z " />
    <path fill="rgb(59,183,175)" stroke="rgb(59,183,175)" stroke-width="1"
        opacity="0.996078431372549" d="M 223.5 309 L 222.5 311 L 223.5 309 Z " />
    <path fill="rgb(59,183,175)" stroke="rgb(59,183,175)" stroke-width="1"
        opacity="0.996078431372549" d="M 238.5 309 L 237.5 311 L 238.5 309 Z " />
    <path fill="rgb(59,183,175)" stroke="rgb(59,183,175)" stroke-width="1"
        opacity="0.996078431372549" d="M 244.5 309 L 243.5 311 L 244.5 309 Z " />
    <path fill="rgb(59,183,175)" stroke="rgb(59,183,175)" stroke-width="1"
        opacity="0.996078431372549"
        d="M 308.5 309 L 311 310.5 L 309.5 310 L 307.5 311 L 308.5 309 Z " />
    <path fill="rgb(59,183,175)" stroke="rgb(59,183,175)" stroke-width="1"
        opacity="0.996078431372549" d="M 235.5 311 L 234.5 313 L 235.5 311 Z " />
    <path fill="rgb(59,183,175)" stroke="rgb(59,183,175)" stroke-width="1"
        opacity="0.996078431372549" d="M 228.5 319 L 224.5 324 L 228.5 319 Z " />
    <path fill="rgb(59,183,175)" stroke="rgb(59,183,175)" stroke-width="1"
        opacity="0.996078431372549" d="M 214.5 320 L 211.5 324 L 214.5 320 Z " />
    <path fill="rgb(59,183,175)" stroke="rgb(59,183,175)" stroke-width="1"
        opacity="0.996078431372549" d="M 237.5 321 L 236.5 323 L 237.5 321 Z " />
    <path fill="rgb(59,183,175)" stroke="rgb(59,183,175)" stroke-width="1"
        opacity="0.996078431372549" d="M 331.5 324 L 333.5 327 L 331.5 324 Z " />
    <path fill="rgb(59,183,175)" stroke="rgb(59,183,175)" stroke-width="1"
        opacity="0.996078431372549" d="M 207.5 328 L 205.5 331 L 207.5 328 Z " />
    <path fill="rgb(59,183,175)" stroke="rgb(59,183,175)" stroke-width="1"
        opacity="0.996078431372549" d="M 215.5 334 L 211.5 339 L 215.5 334 Z " />
    <path fill="rgb(59,183,175)" stroke="rgb(59,183,175)" stroke-width="1"
        opacity="0.996078431372549" d="M 199.5 337 L 197.5 340 L 199.5 337 Z " />
    <path fill="rgb(59,183,175)" stroke="rgb(59,183,175)" stroke-width="1"
        opacity="0.996078431372549" d="M 196.5 341 L 195.5 343 L 196.5 341 Z " />
    <path fill="rgb(59,183,175)" stroke="rgb(59,183,175)" stroke-width="1"
        opacity="0.996078431372549" d="M 190.5 347 L 189.5 349 L 190.5 347 Z " />
    <path fill="rgb(59,183,175)" stroke="rgb(59,183,175)" stroke-width="1"
        opacity="0.996078431372549" d="M 201.5 349 L 200.5 351 L 201.5 349 Z " />
    <path fill="rgb(59,183,175)" stroke="rgb(59,183,175)" stroke-width="1"
        opacity="0.996078431372549" d="M 185.5 353 L 183.5 356 L 185.5 353 Z " />
    <path fill="rgb(59,183,175)" stroke="rgb(59,183,175)" stroke-width="1"
        opacity="0.996078431372549" d="M 192.5 360 L 190.5 363 L 192.5 360 Z " />
    <path fill="rgb(59,183,175)" stroke="rgb(59,183,175)" stroke-width="1"
        opacity="0.996078431372549" d="M 197.5 368 L 198.5 370 L 197.5 368 Z " />
    <path fill="rgb(59,183,175)" stroke="rgb(59,183,175)" stroke-width="1"
        opacity="0.996078431372549" d="M 209.5 369 L 208.5 371 L 209.5 369 Z " />
</svg>